<?xml version="1.0" encoding="UTF-8" standalone="no"?>
<!-- Created with Inkscape (http://www.inkscape.org/) -->

<svg
   xmlns:dc="http://purl.org/dc/elements/1.1/"
   xmlns:cc="http://creativecommons.org/ns#"
   xmlns:rdf="http://www.w3.org/1999/02/22-rdf-syntax-ns#"
   xmlns:svg="http://www.w3.org/2000/svg"
   xmlns="http://www.w3.org/2000/svg"
   xmlns:sodipodi="http://sodipodi.sourceforge.net/DTD/sodipodi-0.dtd"
   xmlns:inkscape="http://www.inkscape.org/namespaces/inkscape"
   width="210mm"
   height="297mm"
   viewBox="0 0 210 297"
   version="1.1"
   id="svg8"
   inkscape:version="0.92.3 (2405546, 2018-03-11)"
   sodipodi:docname="logo1.svg">
  <defs
     id="defs2" />
  <sodipodi:namedview
     id="base"
     pagecolor="#ffffff"
     bordercolor="#666666"
     borderopacity="1.0"
     inkscape:pageopacity="0.0"
     inkscape:pageshadow="2"
     inkscape:zoom="0.49497475"
     inkscape:cx="387.23578"
     inkscape:cy="-16.533917"
     inkscape:document-units="mm"
     inkscape:current-layer="layer1"
     showgrid="false"
     inkscape:window-width="1117"
     inkscape:window-height="970"
     inkscape:window-x="802"
     inkscape:window-y="42"
     inkscape:window-maximized="0" />
  <metadata
     id="metadata5">
    <rdf:RDF>
      <cc:Work
         rdf:about="">
        <dc:format>image/svg+xml</dc:format>
        <dc:type
           rdf:resource="http://purl.org/dc/dcmitype/StillImage" />
        <dc:title></dc:title>
      </cc:Work>
    </rdf:RDF>
  </metadata>
  <g
     inkscape:label="Layer 1"
     inkscape:groupmode="layer"
     id="layer1">
    <path
       style="opacity:1;fill:#0000ff;fill-opacity:1;stroke:none;stroke-width:45.47527695;stroke-linejoin:round;stroke-miterlimit:4;stroke-dasharray:none;stroke-opacity:1"
       d="M 407.14258,262.51953 A 344.28569,341.42855 0 0 0 64.078125,579.75391 c 27.500956,-28.52375 53.479535,-50.22864 77.923825,-65.08008 35.53782,-21.97954 72.45789,-32.96875 110.75977,-32.96875 43.43511,0 94.17559,18.83837 152.2207,56.51758 l 8.88281,5.65234 c 3.15892,1.88396 7.50315,4.39718 13.03125,7.53711 61.20403,38.93518 110.36515,58.40234 147.48243,58.40234 33.95836,0 67.52082,-11.93142 100.68945,-35.79492 20.1823,-14.34952 41.65984,-33.96312 64.41211,-58.75781 A 344.28569,341.42855 0 0 0 407.14258,262.51953 Z"
       transform="scale(0.26458333)"
       id="path916" />
    <path
       style="opacity:1;fill:#0000ff;fill-opacity:1;stroke:none;stroke-width:45.47527695;stroke-linejoin:round;stroke-miterlimit:4;stroke-dasharray:none;stroke-opacity:1"
       d="m 239.13867,638.07422 c -34.74809,0 -69.10218,12.24484 -103.06055,36.73633 -16.80998,11.81284 -34.20274,27.10029 -52.173823,45.83789 A 344.28569,341.42855 0 0 0 407.14258,945.37695 344.28569,341.42855 0 0 0 744.12695,673.48242 c -25.65472,25.88891 -50.0622,45.82595 -73.20507,59.73047 -35.14296,21.35155 -71.86415,32.02734 -110.16602,32.02734 -43.43512,0 -93.97866,-18.52495 -151.62891,-55.57617 -4.34351,-2.51194 -7.50224,-4.39637 -9.47656,-5.65234 -2.76405,-1.88396 -7.10633,-4.39522 -13.0293,-7.53516 -61.20402,-38.93518 -110.36514,-58.40234 -147.48242,-58.40234 z"
       transform="scale(0.26458333)"
       id="path815" />
    <g
       aria-label="~
"
       transform="matrix(8.0236502,0,0,12.760692,-876.08848,-569.46129)"
       style="font-style:normal;font-weight:normal;font-size:40px;line-height:1.25;font-family:sans-serif;letter-spacing:0px;word-spacing:0px;fill:none;fill-opacity:1;stroke:#000000;stroke-width:0.09882729;stroke-miterlimit:4;stroke-dasharray:none;stroke-opacity:1"
       id="flowRoot817-5">
      <path
         d="m 134.99219,74.001953 c -1.36719,1.028646 -2.63672,1.764323 -3.8086,2.207031 -1.15885,0.442709 -2.36979,0.664063 -3.63281,0.664063 -1.43229,0 -3.09896,-0.384115 -5,-1.152344 -0.14323,-0.05209 -0.24739,-0.09115 -0.3125,-0.117187 -1.60374,-0.535067 -3.52744,-1.345237 -5.29297,-1.367188 -1.14583,0 -2.27864,0.253906 -3.39843,0.761719 -1.11979,0.494791 -2.31771,1.282552 -3.59375,2.363281"
         id="path928"
         inkscape:connector-curvature="0"
         sodipodi:nodetypes="ccsccccc" />
    </g>
    <path
       style="opacity:1;fill:#000080;fill-opacity:1;stroke:none;stroke-width:129.92936707;stroke-linejoin:round;stroke-miterlimit:4;stroke-dasharray:none;stroke-opacity:1"
       d="M 540.54851,603.87226 C 513.23974,597.24306 475.85865,579.20203 419.56394,545.48217 331.98864,493.0256 301.06418,481.30544 250.84094,481.53729 193.39348,481.8025 142.33252,504.85927 87.269509,555.39863 63.845281,576.89846 63.931664,576.9812 70.98557,539.79605 96.834195,403.53317 206.74251,295.51263 346.10952,269.39759 c 31.59268,-5.91993 89.57762,-5.86767 121.47568,0.10948 124.89011,23.40232 224.8938,109.33397 264.76437,227.50803 l 6.19503,18.36173 -24.62063,23.50198 c -61.51989,58.72473 -115.63346,79.01033 -173.37546,64.99345 z"
       id="path918"
       inkscape:connector-curvature="0"
       transform="scale(0.26458333)" />
    <path
       style="opacity:1;fill:#0000ff;fill-opacity:1;stroke:none;stroke-width:129.92936707;stroke-linejoin:round;stroke-miterlimit:4;stroke-dasharray:none;stroke-opacity:1"
       d="M 387.9838,943.38697 C 294.35612,938.26314 202.69947,892.19481 143.32818,820.41853 122.96356,795.79893 101.83789,761.80895 92.309363,738.33217 l -6.57834,-16.20799 13.983529,-14.2821 c 30.144068,-30.7877 71.582588,-56.07713 104.668478,-63.87791 51.19993,-12.0716 93.47599,0.7865 187.77205,57.11015 89.6804,53.56669 124.26237,65.90515 178.50794,63.68961 53.45669,-2.18333 95.93852,-21.04394 147.22758,-65.36448 l 23.53654,-20.33868 -2.01566,9.5866 c -1.1086,5.27263 -7.04834,22.57245 -13.19946,38.44404 -43.08105,111.16153 -148.5058,195.44488 -265.37108,212.15479 -25.48117,3.64343 -53.17969,5.21763 -72.85714,4.14077 z"
       id="path920"
       inkscape:connector-curvature="0"
       transform="scale(0.26458333)" />
    <path
       style="opacity:1;fill:#000080;fill-opacity:1;stroke:none;stroke-width:129.92936707;stroke-linejoin:round;stroke-miterlimit:4;stroke-dasharray:none;stroke-opacity:1"
       d="M 549.96577,605.19174 C 520.61308,600.01977 490.60485,585.80751 409.84071,538.8268 358.72214,509.09099 325.1924,493.0629 301.8228,487.19142 230.93887,469.38223 165.16858,488.2324 98.101264,545.57925 c -14.572119,12.46009 -27.655795,22.65472 -29.074836,22.65472 -1.41904,0 -1.984481,-2.89286 -1.256535,-6.42857 8.564984,-41.60106 11.931888,-55.05747 18.050735,-72.14286 C 133.35341,356.93887 264.28959,265.37683 406.55522,265.37683 c 124.48369,0 241.59483,68.97808 301.03098,177.30626 5.55494,10.12441 14.81285,30.62231 20.57317,45.55088 l 10.47325,27.14286 -19.61011,18.07705 c -25.21031,23.23941 -56.16389,46.69663 -72.32986,54.81298 -32.10563,16.11908 -66.82351,22.19388 -96.72688,16.92488 z"
       id="path922"
       inkscape:connector-curvature="0"
       transform="scale(0.26458333)" />
    <path
       style="opacity:1;fill:#290080;fill-opacity:1;stroke:none;stroke-width:129.92936707;stroke-linejoin:round;stroke-miterlimit:4;stroke-dasharray:none;stroke-opacity:1"
       d="M 385.12665,943.59277 C 268.17476,933.18751 170.41467,873.54992 112.58602,777.33203 105.05195,764.7965 95.927451,747.24656 92.309363,738.33217 l -6.57834,-16.20799 13.983529,-14.30189 C 130.19687,676.646 170.78548,651.88573 204.40217,643.9597 c 51.43636,-12.12748 90.55593,-0.20186 188.6174,57.5001 64.118,37.72873 91.44251,50.704 122.41137,58.12803 72.39197,17.35422 135.444,-2.36715 207.55286,-64.91825 9.82142,-8.51964 17.85714,-14.23124 17.85714,-12.69246 0,6.35248 -12.49003,42.55517 -21.51117,62.3508 -38.59403,84.68905 -120.1216,156.70243 -207.7814,183.53354 -37.06777,11.3458 -94.87023,18.53845 -126.42172,15.73131 z"
       id="path924"
       inkscape:connector-curvature="0"
       transform="scale(0.26458333)" />
    <path
       style="opacity:1;fill:#0051ff;fill-opacity:1;stroke:none;stroke-width:129.92936707;stroke-linejoin:round;stroke-miterlimit:4;stroke-dasharray:none;stroke-opacity:1"
       d="M 544.65728,604.13214 C 517.44005,597.93403 487.76997,583.85629 418.77262,544.40295 334.4959,496.21269 314.47185,487.62239 274.8302,482.65175 214.38569,475.07264 157.713,495.58063 96.640104,547.13291 c -22.697171,19.15892 -30.08488,23.96018 -30.08488,19.55203 0,-6.68628 10.239203,-49.9164 16.212856,-68.45097 36.07441,-111.92877 135.0378,-200.08454 253.78714,-226.07149 27.96375,-6.11955 83.60083,-8.19762 113.3034,-4.23193 130.73146,17.45438 236.45343,102.47398 280.727,225.75533 l 7.60135,21.16619 -7.95872,8.42749 c -17.49285,18.52312 -62.18011,53.5349 -80.85365,63.34755 -36.66326,19.26603 -71.44949,25.08103 -104.71732,17.50503 z"
       id="path926"
       inkscape:connector-curvature="0"
       transform="scale(0.26458333)" />
    <flowRoot
       xml:space="preserve"
       id="flowRoot1506"
       style="fill:black;fill-opacity:1;stroke:none;font-family:sans-serif;font-style:normal;font-weight:normal;font-size:40px;line-height:1.25;letter-spacing:0px;word-spacing:0px"><flowRegion
         id="flowRegion1508"><rect
           id="rect1510"
           width="742.51898"
           height="99.968788"
           x="20.338188"
           y="1408.2651" /></flowRegion><flowPara
         id="flowPara1512"></flowPara></flowRoot>    <flowRoot
       xml:space="preserve"
       id="flowRoot1514"
       style="fill:black;fill-opacity:1;stroke:none;font-family:sans-serif;font-style:normal;font-weight:normal;font-size:40px;line-height:1.25;letter-spacing:0px;word-spacing:0px"><flowRegion
         id="flowRegion1516"><rect
           id="rect1518"
           width="22.857143"
           height="100"
           x="440"
           y="1308.234" /></flowRegion><flowPara
         id="flowPara1520"></flowPara></flowRoot>    <flowRoot
       xml:space="preserve"
       id="flowRoot1522"
       style="font-style:normal;font-weight:normal;font-size:40px;line-height:1.25;font-family:sans-serif;letter-spacing:0px;word-spacing:0px;fill:#000000;fill-opacity:1;stroke:none"
       transform="scale(0.26458333)"><flowRegion
         id="flowRegion1524"><rect
           id="rect1526"
           width="951.42859"
           height="217.14285"
           x="-108.57143"
           y="-386.05176" /></flowRegion><flowPara
         id="flowPara1528">Mat -fiz</flowPara></flowRoot>  </g>
</svg>
