{"id": "T0", "fps": {"num": 24, "den": 1}, "width": 1280, "height": 720, "sample_rate": 44100, "channels": 2, "channel_layout": 3, "settings": {}, "clips": [{"alpha": {"Points": [{"co": {"X": 1, "Y": 1}, "interpolation": 2}]}, "anchor": 0, "channel_filter": {"Points": [{"co": {"X": 1, "Y": -1}, "interpolation": 2}]}, "channel_mapping": {"Points": [{"co": {"X": 1, "Y": -1}, "interpolation": 2}]}, "crop_height": {"Points": [{"co": {"X": 1, "Y": -1}, "interpolation": 2}]}, "crop_width": {"Points": [{"co": {"X": 1, "Y": -1}, "interpolation": 2}]}, "crop_x": {"Points": [{"co": {"X": 1, "Y": 0}, "interpolation": 2}]}, "crop_y": {"Points": [{"co": {"X": 1, "Y": 0}, "interpolation": 2}]}, "display": 0, "duration": 22.2549991607666, "effects": [], "end": 19.854999160766603, "gravity": 4, "has_audio": {"Points": [{"co": {"X": 1, "Y": -1}, "interpolation": 2}]}, "has_video": {"Points": [{"co": {"X": 1, "Y": -1}, "interpolation": 2}]}, "id": "V2IYY919CB", "layer": 3, "location_x": {"Points": [{"co": {"X": 1, "Y": 0}, "interpolation": 2}]}, "location_y": {"Points": [{"co": {"X": 1, "Y": 0}, "interpolation": 2}]}, "perspective_c1_x": {"Points": [{"co": {"X": 1, "Y": -1}, "interpolation": 2}]}, "perspective_c1_y": {"Points": [{"co": {"X": 1, "Y": -1}, "interpolation": 2}]}, "perspective_c2_x": {"Points": [{"co": {"X": 1, "Y": -1}, "interpolation": 2}]}, "perspective_c2_y": {"Points": [{"co": {"X": 1, "Y": -1}, "interpolation": 2}]}, "perspective_c3_x": {"Points": [{"co": {"X": 1, "Y": -1}, "interpolation": 2}]}, "perspective_c3_y": {"Points": [{"co": {"X": 1, "Y": -1}, "interpolation": 2}]}, "perspective_c4_x": {"Points": [{"co": {"X": 1, "Y": -1}, "interpolation": 2}]}, "perspective_c4_y": {"Points": [{"co": {"X": 1, "Y": -1}, "interpolation": 2}]}, "position": 82.84, "reader": {"acodec": "", "audio_bit_rate": 0, "audio_stream_index": -1, "audio_timebase": {"den": 1, "num": 1}, "channel_layout": 4, "channels": 0, "display_ratio": {"den": 3, "num": 4}, "duration": 22.2549991607666, "file_size": "6064208", "fps": {"den": 4451, "num": 107000}, "has_audio": false, "has_single_image": false, "has_video": true, "height": 240, "interlaced_frame": false, "path": "../Wideo/mmedia/sunset.mov", "pixel_format": 2, "pixel_ratio": {"den": 1, "num": 1}, "sample_rate": 0, "top_field_first": true, "type": "FFmpegReader", "vcodec": "cinepak", "video_bit_rate": 2179899, "video_length": "535", "video_stream_index": 0, "video_timebase": {"den": 600, "num": 1}, "width": 320}, "rotation": {"Points": [{"co": {"X": 1, "Y": 0}, "interpolation": 2}]}, "scale": 1, "scale_x": {"Points": [{"co": {"X": 1, "Y": 1}, "interpolation": 2}]}, "scale_y": {"Points": [{"co": {"X": 1, "Y": 1}, "interpolation": 2}]}, "shear_x": {"Points": [{"co": {"X": 1, "Y": 0}, "interpolation": 2}]}, "shear_y": {"Points": [{"co": {"X": 1, "Y": 0}, "interpolation": 2}]}, "start": 0, "time": {"Points": [{"co": {"X": 1, "Y": 1}, "interpolation": 2}]}, "volume": {"Points": [{"co": {"X": 1, "Y": 1}, "interpolation": 2}]}, "wave_color": {"alpha": {"Points": [{"co": {"X": 1, "Y": 255}, "handle_left": {"X": 0.5, "Y": 1}, "handle_right": {"X": 0.5, "Y": 0}, "handle_type": 0, "interpolation": 0}]}, "blue": {"Points": [{"co": {"X": 1, "Y": 255}, "handle_left": {"X": 0.5, "Y": 1}, "handle_right": {"X": 0.5, "Y": 0}, "handle_type": 0, "interpolation": 0}]}, "green": {"Points": [{"co": {"X": 1, "Y": 123}, "handle_left": {"X": 0.5, "Y": 1}, "handle_right": {"X": 0.5, "Y": 0}, "handle_type": 0, "interpolation": 0}]}, "red": {"Points": [{"co": {"X": 1, "Y": 0}, "handle_left": {"X": 0.5, "Y": 1}, "handle_right": {"X": 0.5, "Y": 0}, "handle_type": 0, "interpolation": 0}]}}, "waveform": false, "file_id": "ZYK8RBW5S4", "title": "sunset.mov", "image": "../.openshot_qt/thumbnail/ZYK8RBW5S4.png"}, {"alpha": {"Points": [{"co": {"X": 1, "Y": 1}, "interpolation": 2}]}, "anchor": 0, "channel_filter": {"Points": [{"co": {"X": 1, "Y": -1}, "interpolation": 2}]}, "channel_mapping": {"Points": [{"co": {"X": 1, "Y": -1}, "interpolation": 2}]}, "crop_height": {"Points": [{"co": {"X": 1, "Y": -1}, "interpolation": 2}]}, "crop_width": {"Points": [{"co": {"X": 1, "Y": -1}, "interpolation": 2}]}, "crop_x": {"Points": [{"co": {"X": 1, "Y": 0}, "interpolation": 2}]}, "crop_y": {"Points": [{"co": {"X": 1, "Y": 0}, "interpolation": 2}]}, "display": 0, "duration": 12.71166706085205, "effects": [], "end": 12.71166706085205, "gravity": 4, "has_audio": {"Points": [{"co": {"X": 1, "Y": -1}, "interpolation": 2}]}, "has_video": {"Points": [{"co": {"X": 1, "Y": -1}, "interpolation": 2}]}, "id": "H9MVU9I6KM", "layer": 0, "location_x": {"Points": [{"co": {"X": 1, "Y": 0}, "interpolation": 2}]}, "location_y": {"Points": [{"co": {"X": 1, "Y": 0}, "interpolation": 2}]}, "perspective_c1_x": {"Points": [{"co": {"X": 1, "Y": -1}, "interpolation": 2}]}, "perspective_c1_y": {"Points": [{"co": {"X": 1, "Y": -1}, "interpolation": 2}]}, "perspective_c2_x": {"Points": [{"co": {"X": 1, "Y": -1}, "interpolation": 2}]}, "perspective_c2_y": {"Points": [{"co": {"X": 1, "Y": -1}, "interpolation": 2}]}, "perspective_c3_x": {"Points": [{"co": {"X": 1, "Y": -1}, "interpolation": 2}]}, "perspective_c3_y": {"Points": [{"co": {"X": 1, "Y": -1}, "interpolation": 2}]}, "perspective_c4_x": {"Points": [{"co": {"X": 1, "Y": -1}, "interpolation": 2}]}, "perspective_c4_y": {"Points": [{"co": {"X": 1, "Y": -1}, "interpolation": 2}]}, "position": 104.8, "reader": {"acodec": "", "audio_bit_rate": 0, "audio_stream_index": -1, "audio_timebase": {"den": 1, "num": 1}, "channel_layout": 4, "channels": 0, "display_ratio": {"den": 3, "num": 4}, "duration": 12.71166706085205, "file_size": "3389529", "fps": {"den": 7627, "num": 183600}, "has_audio": false, "has_single_image": false, "has_video": true, "height": 240, "interlaced_frame": false, "path": "../Wideo/mmedia/river.mov", "pixel_format": 2, "pixel_ratio": {"den": 1, "num": 1}, "sample_rate": 0, "top_field_first": true, "type": "FFmpegReader", "vcodec": "cinepak", "video_bit_rate": 2133176, "video_length": "306", "video_stream_index": 0, "video_timebase": {"den": 600, "num": 1}, "width": 320}, "rotation": {"Points": [{"co": {"X": 1, "Y": 0}, "interpolation": 2}]}, "scale": 1, "scale_x": {"Points": [{"co": {"X": 1, "Y": 1}, "interpolation": 2}]}, "scale_y": {"Points": [{"co": {"X": 1, "Y": 1}, "interpolation": 2}]}, "shear_x": {"Points": [{"co": {"X": 1, "Y": 0}, "interpolation": 2}]}, "shear_y": {"Points": [{"co": {"X": 1, "Y": 0}, "interpolation": 2}]}, "start": 0, "time": {"Points": [{"co": {"X": 1, "Y": 1}, "interpolation": 2}]}, "volume": {"Points": [{"co": {"X": 1, "Y": 1}, "interpolation": 2}]}, "wave_color": {"alpha": {"Points": [{"co": {"X": 1, "Y": 255}, "handle_left": {"X": 0.5, "Y": 1}, "handle_right": {"X": 0.5, "Y": 0}, "handle_type": 0, "interpolation": 0}]}, "blue": {"Points": [{"co": {"X": 1, "Y": 255}, "handle_left": {"X": 0.5, "Y": 1}, "handle_right": {"X": 0.5, "Y": 0}, "handle_type": 0, "interpolation": 0}]}, "green": {"Points": [{"co": {"X": 1, "Y": 123}, "handle_left": {"X": 0.5, "Y": 1}, "handle_right": {"X": 0.5, "Y": 0}, "handle_type": 0, "interpolation": 0}]}, "red": {"Points": [{"co": {"X": 1, "Y": 0}, "handle_left": {"X": 0.5, "Y": 1}, "handle_right": {"X": 0.5, "Y": 0}, "handle_type": 0, "interpolation": 0}]}}, "waveform": false, "file_id": "CYBRTPCRWK", "title": "river.mov", "image": "../.openshot_qt/thumbnail/CYBRTPCRWK.png"}, {"alpha": {"Points": [{"co": {"X": 1, "Y": 1}, "interpolation": 2}]}, "anchor": 0, "channel_filter": {"Points": [{"co": {"X": 1, "Y": -1}, "interpolation": 2}]}, "channel_mapping": {"Points": [{"co": {"X": 1, "Y": -1}, "interpolation": 2}]}, "crop_height": {"Points": [{"co": {"X": 1, "Y": -1}, "interpolation": 2}]}, "crop_width": {"Points": [{"co": {"X": 1, "Y": -1}, "interpolation": 2}]}, "crop_x": {"Points": [{"co": {"X": 1, "Y": 0}, "interpolation": 2}]}, "crop_y": {"Points": [{"co": {"X": 1, "Y": 0}, "interpolation": 2}]}, "display": 0, "duration": 27.393333435058594, "effects": [], "end": 9.953333435058592, "gravity": 4, "has_audio": {"Points": [{"co": {"X": 1, "Y": -1}, "interpolation": 2}]}, "has_video": {"Points": [{"co": {"X": 1, "Y": -1}, "interpolation": 2}]}, "id": "43F077NICS", "layer": 1, "location_x": {"Points": [{"co": {"X": 1, "Y": 0}, "interpolation": 2}]}, "location_y": {"Points": [{"co": {"X": 1, "Y": 0}, "interpolation": 2}]}, "perspective_c1_x": {"Points": [{"co": {"X": 1, "Y": -1}, "interpolation": 2}]}, "perspective_c1_y": {"Points": [{"co": {"X": 1, "Y": -1}, "interpolation": 2}]}, "perspective_c2_x": {"Points": [{"co": {"X": 1, "Y": -1}, "interpolation": 2}]}, "perspective_c2_y": {"Points": [{"co": {"X": 1, "Y": -1}, "interpolation": 2}]}, "perspective_c3_x": {"Points": [{"co": {"X": 1, "Y": -1}, "interpolation": 2}]}, "perspective_c3_y": {"Points": [{"co": {"X": 1, "Y": -1}, "interpolation": 2}]}, "perspective_c4_x": {"Points": [{"co": {"X": 1, "Y": -1}, "interpolation": 2}]}, "perspective_c4_y": {"Points": [{"co": {"X": 1, "Y": -1}, "interpolation": 2}]}, "position": 0, "reader": {"acodec": "", "audio_bit_rate": 0, "audio_stream_index": -1, "audio_timebase": {"den": 1, "num": 1}, "channel_layout": 4, "channels": 0, "display_ratio": {"den": 3, "num": 4}, "duration": 27.393333435058594, "file_size": "7497546", "fps": {"den": 587, "num": 14100}, "has_audio": false, "has_single_image": false, "has_video": true, "height": 240, "interlaced_frame": false, "path": "../Wideo/mmedia/sunrise.mov", "pixel_format": 2, "pixel_ratio": {"den": 1, "num": 1}, "sample_rate": 0, "top_field_first": true, "type": "FFmpegReader", "vcodec": "cinepak", "video_bit_rate": 2189597, "video_length": "658", "video_stream_index": 0, "video_timebase": {"den": 600, "num": 1}, "width": 320}, "rotation": {"Points": [{"co": {"X": 1, "Y": 0}, "interpolation": 2}]}, "scale": 1, "scale_x": {"Points": [{"co": {"X": 1, "Y": 1}, "interpolation": 2}]}, "scale_y": {"Points": [{"co": {"X": 1, "Y": 1}, "interpolation": 2}]}, "shear_x": {"Points": [{"co": {"X": 1, "Y": 0}, "interpolation": 2}]}, "shear_y": {"Points": [{"co": {"X": 1, "Y": 0}, "interpolation": 2}]}, "start": 0, "time": {"Points": [{"co": {"X": 1, "Y": 1}, "interpolation": 2}]}, "volume": {"Points": [{"co": {"X": 1, "Y": 1}, "interpolation": 2}]}, "wave_color": {"alpha": {"Points": [{"co": {"X": 1, "Y": 255}, "handle_left": {"X": 0.5, "Y": 1}, "handle_right": {"X": 0.5, "Y": 0}, "handle_type": 0, "interpolation": 0}]}, "blue": {"Points": [{"co": {"X": 1, "Y": 255}, "handle_left": {"X": 0.5, "Y": 1}, "handle_right": {"X": 0.5, "Y": 0}, "handle_type": 0, "interpolation": 0}]}, "green": {"Points": [{"co": {"X": 1, "Y": 123}, "handle_left": {"X": 0.5, "Y": 1}, "handle_right": {"X": 0.5, "Y": 0}, "handle_type": 0, "interpolation": 0}]}, "red": {"Points": [{"co": {"X": 1, "Y": 0}, "handle_left": {"X": 0.5, "Y": 1}, "handle_right": {"X": 0.5, "Y": 0}, "handle_type": 0, "interpolation": 0}]}}, "waveform": false, "file_id": "B6I35AHDEQ", "title": "sunrise.mov", "image": "../.openshot_qt/thumbnail/B6I35AHDEQ.png"}, {"alpha": {"Points": [{"co": {"X": 1, "Y": 1}, "interpolation": 2}]}, "anchor": 0, "channel_filter": {"Points": [{"co": {"X": 1, "Y": -1}, "interpolation": 2}]}, "channel_mapping": {"Points": [{"co": {"X": 1, "Y": -1}, "interpolation": 2}]}, "crop_height": {"Points": [{"co": {"X": 1, "Y": -1}, "interpolation": 2}]}, "crop_width": {"Points": [{"co": {"X": 1, "Y": -1}, "interpolation": 2}]}, "crop_x": {"Points": [{"co": {"X": 1, "Y": 0}, "interpolation": 2}]}, "crop_y": {"Points": [{"co": {"X": 1, "Y": 0}, "interpolation": 2}]}, "display": 0, "duration": 10.443333625793457, "effects": [], "end": 10.443333625793457, "gravity": 4, "has_audio": {"Points": [{"co": {"X": 1, "Y": -1}, "interpolation": 2}]}, "has_video": {"Points": [{"co": {"X": 1, "Y": -1}, "interpolation": 2}]}, "id": "MWKSO4N479", "layer": 1, "location_x": {"Points": [{"co": {"X": 1, "Y": 0}, "interpolation": 2}]}, "location_y": {"Points": [{"co": {"X": 1, "Y": 0}, "interpolation": 2}]}, "perspective_c1_x": {"Points": [{"co": {"X": 1, "Y": -1}, "interpolation": 2}]}, "perspective_c1_y": {"Points": [{"co": {"X": 1, "Y": -1}, "interpolation": 2}]}, "perspective_c2_x": {"Points": [{"co": {"X": 1, "Y": -1}, "interpolation": 2}]}, "perspective_c2_y": {"Points": [{"co": {"X": 1, "Y": -1}, "interpolation": 2}]}, "perspective_c3_x": {"Points": [{"co": {"X": 1, "Y": -1}, "interpolation": 2}]}, "perspective_c3_y": {"Points": [{"co": {"X": 1, "Y": -1}, "interpolation": 2}]}, "perspective_c4_x": {"Points": [{"co": {"X": 1, "Y": -1}, "interpolation": 2}]}, "perspective_c4_y": {"Points": [{"co": {"X": 1, "Y": -1}, "interpolation": 2}]}, "position": 7.27, "reader": {"acodec": "", "audio_bit_rate": 0, "audio_stream_index": -1, "audio_timebase": {"den": 1, "num": 1}, "channel_layout": 4, "channels": 0, "display_ratio": {"den": 3, "num": 4}, "duration": 10.443333625793457, "file_size": "2834900", "fps": {"den": 3133, "num": 75300}, "has_audio": false, "has_single_image": false, "has_video": true, "height": 240, "interlaced_frame": false, "path": "../Wideo/mmedia/eye.mov", "pixel_format": 2, "pixel_ratio": {"den": 1, "num": 1}, "sample_rate": 0, "top_field_first": true, "type": "FFmpegReader", "vcodec": "cinepak", "video_bit_rate": 2171643, "video_length": "251", "video_stream_index": 0, "video_timebase": {"den": 600, "num": 1}, "width": 320}, "rotation": {"Points": [{"co": {"X": 1, "Y": 0}, "interpolation": 2}]}, "scale": 1, "scale_x": {"Points": [{"co": {"X": 1, "Y": 1}, "interpolation": 2}]}, "scale_y": {"Points": [{"co": {"X": 1, "Y": 1}, "interpolation": 2}]}, "shear_x": {"Points": [{"co": {"X": 1, "Y": 0}, "interpolation": 2}]}, "shear_y": {"Points": [{"co": {"X": 1, "Y": 0}, "interpolation": 2}]}, "start": 0, "time": {"Points": [{"co": {"X": 1, "Y": 1}, "interpolation": 2}]}, "volume": {"Points": [{"co": {"X": 1, "Y": 1}, "interpolation": 2}]}, "wave_color": {"alpha": {"Points": [{"co": {"X": 1, "Y": 255}, "handle_left": {"X": 0.5, "Y": 1}, "handle_right": {"X": 0.5, "Y": 0}, "handle_type": 0, "interpolation": 0}]}, "blue": {"Points": [{"co": {"X": 1, "Y": 255}, "handle_left": {"X": 0.5, "Y": 1}, "handle_right": {"X": 0.5, "Y": 0}, "handle_type": 0, "interpolation": 0}]}, "green": {"Points": [{"co": {"X": 1, "Y": 123}, "handle_left": {"X": 0.5, "Y": 1}, "handle_right": {"X": 0.5, "Y": 0}, "handle_type": 0, "interpolation": 0}]}, "red": {"Points": [{"co": {"X": 1, "Y": 0}, "handle_left": {"X": 0.5, "Y": 1}, "handle_right": {"X": 0.5, "Y": 0}, "handle_type": 0, "interpolation": 0}]}}, "waveform": false, "file_id": "18EPNI99JT", "title": "eye.mov", "image": "../.openshot_qt/thumbnail/18EPNI99JT.png"}, {"alpha": {"Points": [{"co": {"X": 1, "Y": 1}, "interpolation": 2}]}, "anchor": 0, "channel_filter": {"Points": [{"co": {"X": 1, "Y": -1}, "interpolation": 2}]}, "channel_mapping": {"Points": [{"co": {"X": 1, "Y": -1}, "interpolation": 2}]}, "crop_height": {"Points": [{"co": {"X": 1, "Y": -1}, "interpolation": 2}]}, "crop_width": {"Points": [{"co": {"X": 1, "Y": -1}, "interpolation": 2}]}, "crop_x": {"Points": [{"co": {"X": 1, "Y": 0}, "interpolation": 2}]}, "crop_y": {"Points": [{"co": {"X": 1, "Y": 0}, "interpolation": 2}]}, "display": 0, "duration": 15.981666564941406, "effects": [], "end": 13.261666564941406, "gravity": 4, "has_audio": {"Points": [{"co": {"X": 1, "Y": -1}, "interpolation": 2}]}, "has_video": {"Points": [{"co": {"X": 1, "Y": -1}, "interpolation": 2}]}, "id": "4D4FDRWKOW", "layer": 1, "location_x": {"Points": [{"co": {"X": 1, "Y": 0}, "interpolation": 2}]}, "location_y": {"Points": [{"co": {"X": 1, "Y": 0}, "interpolation": 2}]}, "perspective_c1_x": {"Points": [{"co": {"X": 1, "Y": -1}, "interpolation": 2}]}, "perspective_c1_y": {"Points": [{"co": {"X": 1, "Y": -1}, "interpolation": 2}]}, "perspective_c2_x": {"Points": [{"co": {"X": 1, "Y": -1}, "interpolation": 2}]}, "perspective_c2_y": {"Points": [{"co": {"X": 1, "Y": -1}, "interpolation": 2}]}, "perspective_c3_x": {"Points": [{"co": {"X": 1, "Y": -1}, "interpolation": 2}]}, "perspective_c3_y": {"Points": [{"co": {"X": 1, "Y": -1}, "interpolation": 2}]}, "perspective_c4_x": {"Points": [{"co": {"X": 1, "Y": -1}, "interpolation": 2}]}, "perspective_c4_y": {"Points": [{"co": {"X": 1, "Y": -1}, "interpolation": 2}]}, "position": 47.67999999999999, "reader": {"acodec": "", "audio_bit_rate": 0, "audio_stream_index": -1, "audio_timebase": {"den": 1, "num": 1}, "channel_layout": 4, "channels": 0, "display_ratio": {"den": 3, "num": 4}, "duration": 15.981666564941406, "file_size": "3936862", "fps": {"den": 9589, "num": 230400}, "has_audio": false, "has_single_image": false, "has_video": true, "height": 240, "interlaced_frame": false, "path": "../Wideo/mmedia/b2-2.mov", "pixel_format": 2, "pixel_ratio": {"den": 1, "num": 1}, "sample_rate": 0, "top_field_first": true, "type": "FFmpegReader", "vcodec": "cinepak", "video_bit_rate": 1970689, "video_length": "384", "video_stream_index": 0, "video_timebase": {"den": 600, "num": 1}, "width": 320}, "rotation": {"Points": [{"co": {"X": 1, "Y": 0}, "interpolation": 2}]}, "scale": 1, "scale_x": {"Points": [{"co": {"X": 1, "Y": 1}, "interpolation": 2}]}, "scale_y": {"Points": [{"co": {"X": 1, "Y": 1}, "interpolation": 2}]}, "shear_x": {"Points": [{"co": {"X": 1, "Y": 0}, "interpolation": 2}]}, "shear_y": {"Points": [{"co": {"X": 1, "Y": 0}, "interpolation": 2}]}, "start": 0, "time": {"Points": [{"co": {"X": 1, "Y": 1}, "interpolation": 2}]}, "volume": {"Points": [{"co": {"X": 1, "Y": 1}, "interpolation": 2}]}, "wave_color": {"alpha": {"Points": [{"co": {"X": 1, "Y": 255}, "handle_left": {"X": 0.5, "Y": 1}, "handle_right": {"X": 0.5, "Y": 0}, "handle_type": 0, "interpolation": 0}]}, "blue": {"Points": [{"co": {"X": 1, "Y": 255}, "handle_left": {"X": 0.5, "Y": 1}, "handle_right": {"X": 0.5, "Y": 0}, "handle_type": 0, "interpolation": 0}]}, "green": {"Points": [{"co": {"X": 1, "Y": 123}, "handle_left": {"X": 0.5, "Y": 1}, "handle_right": {"X": 0.5, "Y": 0}, "handle_type": 0, "interpolation": 0}]}, "red": {"Points": [{"co": {"X": 1, "Y": 0}, "handle_left": {"X": 0.5, "Y": 1}, "handle_right": {"X": 0.5, "Y": 0}, "handle_type": 0, "interpolation": 0}]}}, "waveform": false, "file_id": "GX3CDKTQ5N", "title": "b2-2.mov", "image": "../.openshot_qt/thumbnail/GX3CDKTQ5N.png"}, {"alpha": {"Points": [{"co": {"X": 1, "Y": 1}, "interpolation": 2}]}, "anchor": 0, "channel_filter": {"Points": [{"co": {"X": 1, "Y": -1}, "interpolation": 2}]}, "channel_mapping": {"Points": [{"co": {"X": 1, "Y": -1}, "interpolation": 2}]}, "crop_height": {"Points": [{"co": {"X": 1, "Y": -1}, "interpolation": 2}]}, "crop_width": {"Points": [{"co": {"X": 1, "Y": -1}, "interpolation": 2}]}, "crop_x": {"Points": [{"co": {"X": 1, "Y": 0}, "interpolation": 2}]}, "crop_y": {"Points": [{"co": {"X": 1, "Y": 0}, "interpolation": 2}]}, "display": 0, "duration": 17.41666603088379, "effects": [], "end": 2.696666030883789, "gravity": 4, "has_audio": {"Points": [{"co": {"X": 1, "Y": -1}, "interpolation": 2}]}, "has_video": {"Points": [{"co": {"X": 1, "Y": -1}, "interpolation": 2}]}, "id": "FMZJL1LFSN", "layer": 1, "location_x": {"Points": [{"co": {"X": 1, "Y": 0}, "interpolation": 2}]}, "location_y": {"Points": [{"co": {"X": 1, "Y": 0}, "interpolation": 2}]}, "perspective_c1_x": {"Points": [{"co": {"X": 1, "Y": -1}, "interpolation": 2}]}, "perspective_c1_y": {"Points": [{"co": {"X": 1, "Y": -1}, "interpolation": 2}]}, "perspective_c2_x": {"Points": [{"co": {"X": 1, "Y": -1}, "interpolation": 2}]}, "perspective_c2_y": {"Points": [{"co": {"X": 1, "Y": -1}, "interpolation": 2}]}, "perspective_c3_x": {"Points": [{"co": {"X": 1, "Y": -1}, "interpolation": 2}]}, "perspective_c3_y": {"Points": [{"co": {"X": 1, "Y": -1}, "interpolation": 2}]}, "perspective_c4_x": {"Points": [{"co": {"X": 1, "Y": -1}, "interpolation": 2}]}, "perspective_c4_y": {"Points": [{"co": {"X": 1, "Y": -1}, "interpolation": 2}]}, "position": 17.125, "reader": {"acodec": "", "audio_bit_rate": 0, "audio_stream_index": -1, "audio_timebase": {"den": 1, "num": 1}, "channel_layout": 4, "channels": 0, "display_ratio": {"den": 3, "num": 4}, "duration": 17.41666603088379, "file_size": "4476679", "fps": {"den": 1, "num": 24}, "has_audio": false, "has_single_image": false, "has_video": true, "height": 240, "interlaced_frame": false, "path": "../Wideo/mmedia/abstrct3.mov", "pixel_format": 2, "pixel_ratio": {"den": 1, "num": 1}, "sample_rate": 0, "top_field_first": true, "type": "FFmpegReader", "vcodec": "cinepak", "video_bit_rate": 2056273, "video_length": "418", "video_stream_index": 0, "video_timebase": {"den": 600, "num": 1}, "width": 320}, "rotation": {"Points": [{"co": {"X": 1, "Y": 0}, "interpolation": 2}]}, "scale": 1, "scale_x": {"Points": [{"co": {"X": 1, "Y": 1}, "interpolation": 2}]}, "scale_y": {"Points": [{"co": {"X": 1, "Y": 1}, "interpolation": 2}]}, "shear_x": {"Points": [{"co": {"X": 1, "Y": 0}, "interpolation": 2}]}, "shear_y": {"Points": [{"co": {"X": 1, "Y": 0}, "interpolation": 2}]}, "start": 0, "time": {"Points": [{"co": {"X": 1, "Y": 1}, "interpolation": 2}]}, "volume": {"Points": [{"co": {"X": 1, "Y": 1}, "interpolation": 2}]}, "wave_color": {"alpha": {"Points": [{"co": {"X": 1, "Y": 255}, "handle_left": {"X": 0.5, "Y": 1}, "handle_right": {"X": 0.5, "Y": 0}, "handle_type": 0, "interpolation": 0}]}, "blue": {"Points": [{"co": {"X": 1, "Y": 255}, "handle_left": {"X": 0.5, "Y": 1}, "handle_right": {"X": 0.5, "Y": 0}, "handle_type": 0, "interpolation": 0}]}, "green": {"Points": [{"co": {"X": 1, "Y": 123}, "handle_left": {"X": 0.5, "Y": 1}, "handle_right": {"X": 0.5, "Y": 0}, "handle_type": 0, "interpolation": 0}]}, "red": {"Points": [{"co": {"X": 1, "Y": 0}, "handle_left": {"X": 0.5, "Y": 1}, "handle_right": {"X": 0.5, "Y": 0}, "handle_type": 0, "interpolation": 0}]}}, "waveform": false, "file_id": "NJU2K5CN93", "title": "abstrct3.mov", "image": "../.openshot_qt/thumbnail/NJU2K5CN93.png"}, {"alpha": {"Points": [{"co": {"X": 1, "Y": 1}, "interpolation": 2}]}, "anchor": 0, "channel_filter": {"Points": [{"co": {"X": 1, "Y": -1}, "interpolation": 2}]}, "channel_mapping": {"Points": [{"co": {"X": 1, "Y": -1}, "interpolation": 2}]}, "crop_height": {"Points": [{"co": {"X": 1, "Y": -1}, "interpolation": 2}]}, "crop_width": {"Points": [{"co": {"X": 1, "Y": -1}, "interpolation": 2}]}, "crop_x": {"Points": [{"co": {"X": 1, "Y": 0}, "interpolation": 2}]}, "crop_y": {"Points": [{"co": {"X": 1, "Y": 0}, "interpolation": 2}]}, "display": 0, "duration": 5.605000019073486, "effects": [], "end": 5.605000019073486, "gravity": 4, "has_audio": {"Points": [{"co": {"X": 1, "Y": -1}, "interpolation": 2}]}, "has_video": {"Points": [{"co": {"X": 1, "Y": -1}, "interpolation": 2}]}, "id": "TJFX01QUS8", "layer": 1, "location_x": {"Points": [{"co": {"X": 1, "Y": 0}, "interpolation": 2}]}, "location_y": {"Points": [{"co": {"X": 1, "Y": 0}, "interpolation": 2}]}, "perspective_c1_x": {"Points": [{"co": {"X": 1, "Y": -1}, "interpolation": 2}]}, "perspective_c1_y": {"Points": [{"co": {"X": 1, "Y": -1}, "interpolation": 2}]}, "perspective_c2_x": {"Points": [{"co": {"X": 1, "Y": -1}, "interpolation": 2}]}, "perspective_c2_y": {"Points": [{"co": {"X": 1, "Y": -1}, "interpolation": 2}]}, "perspective_c3_x": {"Points": [{"co": {"X": 1, "Y": -1}, "interpolation": 2}]}, "perspective_c3_y": {"Points": [{"co": {"X": 1, "Y": -1}, "interpolation": 2}]}, "perspective_c4_x": {"Points": [{"co": {"X": 1, "Y": -1}, "interpolation": 2}]}, "perspective_c4_y": {"Points": [{"co": {"X": 1, "Y": -1}, "interpolation": 2}]}, "position": 17.125, "reader": {"acodec": "", "audio_bit_rate": 0, "audio_stream_index": -1, "audio_timebase": {"den": 1, "num": 1}, "channel_layout": 4, "channels": 0, "display_ratio": {"den": 3, "num": 4}, "duration": 5.605000019073486, "file_size": "1584165", "fps": {"den": 1121, "num": 27000}, "has_audio": false, "has_single_image": false, "has_video": true, "height": 240, "interlaced_frame": false, "path": "../Wideo/mmedia/clouds.mov", "pixel_format": 2, "pixel_ratio": {"den": 1, "num": 1}, "sample_rate": 0, "top_field_first": true, "type": "FFmpegReader", "vcodec": "cinepak", "video_bit_rate": 2261074, "video_length": "135", "video_stream_index": 0, "video_timebase": {"den": 600, "num": 1}, "width": 320}, "rotation": {"Points": [{"co": {"X": 1, "Y": 0}, "interpolation": 2}]}, "scale": 1, "scale_x": {"Points": [{"co": {"X": 1, "Y": 1}, "interpolation": 2}]}, "scale_y": {"Points": [{"co": {"X": 1, "Y": 1}, "interpolation": 2}]}, "shear_x": {"Points": [{"co": {"X": 1, "Y": 0}, "interpolation": 2}]}, "shear_y": {"Points": [{"co": {"X": 1, "Y": 0}, "interpolation": 2}]}, "start": 0, "time": {"Points": [{"co": {"X": 1, "Y": 1}, "interpolation": 2}]}, "volume": {"Points": [{"co": {"X": 1, "Y": 1}, "interpolation": 2}]}, "wave_color": {"alpha": {"Points": [{"co": {"X": 1, "Y": 255}, "handle_left": {"X": 0.5, "Y": 1}, "handle_right": {"X": 0.5, "Y": 0}, "handle_type": 0, "interpolation": 0}]}, "blue": {"Points": [{"co": {"X": 1, "Y": 255}, "handle_left": {"X": 0.5, "Y": 1}, "handle_right": {"X": 0.5, "Y": 0}, "handle_type": 0, "interpolation": 0}]}, "green": {"Points": [{"co": {"X": 1, "Y": 123}, "handle_left": {"X": 0.5, "Y": 1}, "handle_right": {"X": 0.5, "Y": 0}, "handle_type": 0, "interpolation": 0}]}, "red": {"Points": [{"co": {"X": 1, "Y": 0}, "handle_left": {"X": 0.5, "Y": 1}, "handle_right": {"X": 0.5, "Y": 0}, "handle_type": 0, "interpolation": 0}]}}, "waveform": false, "file_id": "28R7BVCSAA", "title": "clouds.mov", "image": "../.openshot_qt/thumbnail/28R7BVCSAA.png"}], "effects": [{"id": "2F2DTYMCVJ", "layer": 1, "title": "Transition", "type": "Mask", "position": 7.27, "start": 0, "end": 2.683333435058593, "brightness": {"Points": [{"co": {"X": 1, "Y": 1}, "handle_left": {"X": 0.5, "Y": 1}, "handle_right": {"X": 0.5, "Y": 0}, "handle_type": 0, "interpolation": 0}, {"co": {"X": 65, "Y": -1}, "handle_left": {"X": 0.5, "Y": 1}, "handle_right": {"X": 0.5, "Y": 0}, "handle_type": 0, "interpolation": 0}]}, "contrast": {"Points": [{"co": {"X": 1, "Y": 3}, "interpolation": 2}]}, "reader": {"acodec": "", "audio_bit_rate": 0, "audio_stream_index": -1, "audio_timebase": {"den": 1, "num": 1}, "channel_layout": 4, "channels": 0, "display_ratio": {"den": 4, "num": 5}, "duration": 86400, "file_size": "1658880", "fps": {"den": 1, "num": 30}, "has_audio": false, "has_single_image": true, "has_video": true, "height": 576, "interlaced_frame": false, "path": "@transitions/common/fade.svg", "pixel_format": -1, "pixel_ratio": {"den": 1, "num": 1}, "sample_rate": 0, "top_field_first": true, "type": "QtImageReader", "vcodec": "", "video_bit_rate": 0, "video_length": "2592000", "video_stream_index": -1, "video_timebase": {"den": 30, "num": 1}, "width": 720}, "replace_image": false}, {"id": "JTDEFMZPV4", "layer": 1, "title": "Transition", "type": "Mask", "position": 15.52, "start": 0, "end": 2.193333625793457, "brightness": {"Points": [{"co": {"X": 1, "Y": 1}, "handle_left": {"X": 0.5, "Y": 1}, "handle_right": {"X": 0.5, "Y": 0}, "handle_type": 0, "interpolation": 0}, {"co": {"X": 54, "Y": -1}, "handle_left": {"X": 0.5, "Y": 1}, "handle_right": {"X": 0.5, "Y": 0}, "handle_type": 0, "interpolation": 0}]}, "contrast": {"Points": [{"co": {"X": 1, "Y": 3}, "interpolation": 2}]}, "reader": {"acodec": "", "audio_bit_rate": 0, "audio_stream_index": -1, "audio_timebase": {"den": 1, "num": 1}, "channel_layout": 4, "channels": 0, "display_ratio": {"den": 4, "num": 5}, "duration": 86400, "file_size": "1658880", "fps": {"den": 1, "num": 30}, "has_audio": false, "has_single_image": true, "has_video": true, "height": 576, "interlaced_frame": false, "path": "@transitions/common/fade.svg", "pixel_format": -1, "pixel_ratio": {"den": 1, "num": 1}, "sample_rate": 0, "top_field_first": true, "type": "QtImageReader", "vcodec": "", "video_bit_rate": 0, "video_length": "2592000", "video_stream_index": -1, "video_timebase": {"den": 30, "num": 1}, "width": 720}, "replace_image": false}, {"id": "UALMEYFQS8", "layer": 1, "title": "Transition", "type": "Mask", "position": 41.6775, "start": 0, "end": 3.4241665649414017, "brightness": {"Points": [{"co": {"X": 1, "Y": 1}, "handle_left": {"X": 0.5, "Y": 1}, "handle_right": {"X": 0.5, "Y": 0}, "handle_type": 0, "interpolation": 0}, {"co": {"X": 83, "Y": -1}, "handle_left": {"X": 0.5, "Y": 1}, "handle_right": {"X": 0.5, "Y": 0}, "handle_type": 0, "interpolation": 0}]}, "contrast": {"Points": [{"co": {"X": 1, "Y": 3}, "interpolation": 2}]}, "reader": {"acodec": "", "audio_bit_rate": 0, "audio_stream_index": -1, "audio_timebase": {"den": 1, "num": 1}, "channel_layout": 4, "channels": 0, "display_ratio": {"den": 4, "num": 5}, "duration": 86400, "file_size": "1658880", "fps": {"den": 1, "num": 30}, "has_audio": false, "has_single_image": true, "has_video": true, "height": 576, "interlaced_frame": false, "path": "@transitions/common/fade.svg", "pixel_format": -1, "pixel_ratio": {"den": 1, "num": 1}, "sample_rate": 0, "top_field_first": true, "type": "QtImageReader", "vcodec": "", "video_bit_rate": 0, "video_length": "2592000", "video_stream_index": -1, "video_timebase": {"den": 30, "num": 1}, "width": 720}, "replace_image": false}], "export_path": "", "files": [{"acodec": "", "audio_bit_rate": 0, "audio_stream_index": -1, "audio_timebase": {"den": 1, "num": 1}, "channel_layout": 4, "channels": 0, "display_ratio": {"den": 3, "num": 4}, "duration": 5.605000019073486, "file_size": "1584165", "fps": {"den": 1121, "num": 27000}, "has_audio": false, "has_single_image": false, "has_video": true, "height": 240, "interlaced_frame": false, "path": "../Wideo/mmedia/clouds.mov", "pixel_format": 2, "pixel_ratio": {"den": 1, "num": 1}, "sample_rate": 0, "top_field_first": true, "type": "FFmpegReader", "vcodec": "cinepak", "video_bit_rate": 2261074, "video_length": "135", "video_stream_index": 0, "video_timebase": {"den": 600, "num": 1}, "width": 320, "media_type": "video", "id": "28R7BVCSAA"}, {"acodec": "", "audio_bit_rate": 0, "audio_stream_index": -1, "audio_timebase": {"den": 1, "num": 1}, "channel_layout": 4, "channels": 0, "display_ratio": {"den": 3, "num": 4}, "duration": 15.981666564941406, "file_size": "3936862", "fps": {"den": 9589, "num": 230400}, "has_audio": false, "has_single_image": false, "has_video": true, "height": 240, "interlaced_frame": false, "path": "../Wideo/mmedia/b2-2.mov", "pixel_format": 2, "pixel_ratio": {"den": 1, "num": 1}, "sample_rate": 0, "top_field_first": true, "type": "FFmpegReader", "vcodec": "cinepak", "video_bit_rate": 1970689, "video_length": "384", "video_stream_index": 0, "video_timebase": {"den": 600, "num": 1}, "width": 320, "media_type": "video", "id": "GX3CDKTQ5N"}, {"acodec": "", "audio_bit_rate": 0, "audio_stream_index": -1, "audio_timebase": {"den": 1, "num": 1}, "channel_layout": 4, "channels": 0, "display_ratio": {"den": 3, "num": 4}, "duration": 27.393333435058594, "file_size": "7497546", "fps": {"den": 587, "num": 14100}, "has_audio": false, "has_single_image": false, "has_video": true, "height": 240, "interlaced_frame": false, "path": "../Wideo/mmedia/sunrise.mov", "pixel_format": 2, "pixel_ratio": {"den": 1, "num": 1}, "sample_rate": 0, "top_field_first": true, "type": "FFmpegReader", "vcodec": "cinepak", "video_bit_rate": 2189597, "video_length": "658", "video_stream_index": 0, "video_timebase": {"den": 600, "num": 1}, "width": 320, "media_type": "video", "id": "B6I35AHDEQ"}, {"acodec": "", "audio_bit_rate": 0, "audio_stream_index": -1, "audio_timebase": {"den": 1, "num": 1}, "channel_layout": 4, "channels": 0, "display_ratio": {"den": 3, "num": 4}, "duration": 22.2549991607666, "file_size": "6064208", "fps": {"den": 4451, "num": 107000}, "has_audio": false, "has_single_image": false, "has_video": true, "height": 240, "interlaced_frame": false, "path": "../Wideo/mmedia/sunset.mov", "pixel_format": 2, "pixel_ratio": {"den": 1, "num": 1}, "sample_rate": 0, "top_field_first": true, "type": "FFmpegReader", "vcodec": "cinepak", "video_bit_rate": 2179899, "video_length": "535", "video_stream_index": 0, "video_timebase": {"den": 600, "num": 1}, "width": 320, "media_type": "video", "id": "ZYK8RBW5S4"}, {"acodec": "", "audio_bit_rate": 0, "audio_stream_index": -1, "audio_timebase": {"den": 1, "num": 1}, "channel_layout": 4, "channels": 0, "display_ratio": {"den": 3, "num": 4}, "duration": 32.098331451416016, "file_size": "8533611", "fps": {"den": 19259, "num": 462600}, "has_audio": false, "has_single_image": false, "has_video": true, "height": 240, "interlaced_frame": false, "path": "../Wideo/mmedia/stealth.mov", "pixel_format": 2, "pixel_ratio": {"den": 1, "num": 1}, "sample_rate": 0, "top_field_first": true, "type": "FFmpegReader", "vcodec": "cinepak", "video_bit_rate": 2126867, "video_length": "771", "video_stream_index": 0, "video_timebase": {"den": 600, "num": 1}, "width": 320, "media_type": "video", "id": "I63PG0W9UB"}, {"acodec": "", "audio_bit_rate": 0, "audio_stream_index": -1, "audio_timebase": {"den": 1, "num": 1}, "channel_layout": 4, "channels": 0, "display_ratio": {"den": 3, "num": 4}, "duration": 12.71166706085205, "file_size": "3389529", "fps": {"den": 7627, "num": 183600}, "has_audio": false, "has_single_image": false, "has_video": true, "height": 240, "interlaced_frame": false, "path": "../Wideo/mmedia/river.mov", "pixel_format": 2, "pixel_ratio": {"den": 1, "num": 1}, "sample_rate": 0, "top_field_first": true, "type": "FFmpegReader", "vcodec": "cinepak", "video_bit_rate": 2133176, "video_length": "306", "video_stream_index": 0, "video_timebase": {"den": 600, "num": 1}, "width": 320, "media_type": "video", "id": "CYBRTPCRWK"}, {"acodec": "", "audio_bit_rate": 0, "audio_stream_index": -1, "audio_timebase": {"den": 1, "num": 1}, "channel_layout": 4, "channels": 0, "display_ratio": {"den": 3, "num": 4}, "duration": 17.41666603088379, "file_size": "4476679", "fps": {"den": 1, "num": 24}, "has_audio": false, "has_single_image": false, "has_video": true, "height": 240, "interlaced_frame": false, "path": "../Wideo/mmedia/abstrct3.mov", "pixel_format": 2, "pixel_ratio": {"den": 1, "num": 1}, "sample_rate": 0, "top_field_first": true, "type": "FFmpegReader", "vcodec": "cinepak", "video_bit_rate": 2056273, "video_length": "418", "video_stream_index": 0, "video_timebase": {"den": 600, "num": 1}, "width": 320, "media_type": "video", "id": "NJU2K5CN93"}, {"acodec": "", "audio_bit_rate": 0, "audio_stream_index": -1, "audio_timebase": {"den": 1, "num": 1}, "channel_layout": 4, "channels": 0, "display_ratio": {"den": 3, "num": 4}, "duration": 17.850000381469727, "file_size": "4870616", "fps": {"den": 119, "num": 2860}, "has_audio": false, "has_single_image": false, "has_video": true, "height": 240, "interlaced_frame": false, "path": "../Wideo/mmedia/canyon.mov", "pixel_format": 2, "pixel_ratio": {"den": 1, "num": 1}, "sample_rate": 0, "top_field_first": true, "type": "FFmpegReader", "vcodec": "cinepak", "video_bit_rate": 2182909, "video_length": "429", "video_stream_index": 0, "video_timebase": {"den": 600, "num": 1}, "width": 320, "media_type": "video", "id": "F4VK3GN99O"}, {"acodec": "", "audio_bit_rate": 0, "audio_stream_index": -1, "audio_timebase": {"den": 1, "num": 1}, "channel_layout": 4, "channels": 0, "display_ratio": {"den": 3, "num": 4}, "duration": 15.248332977294922, "file_size": "4117500", "fps": {"den": 9149, "num": 219600}, "has_audio": false, "has_single_image": false, "has_video": true, "height": 240, "interlaced_frame": false, "path": "../Wideo/mmedia/coast.mov", "pixel_format": 2, "pixel_ratio": {"den": 1, "num": 1}, "sample_rate": 0, "top_field_first": true, "type": "FFmpegReader", "vcodec": "cinepak", "video_bit_rate": 2160236, "video_length": "366", "video_stream_index": 0, "video_timebase": {"den": 600, "num": 1}, "width": 320, "media_type": "video", "id": "4H9K05S2WC"}, {"acodec": "", "audio_bit_rate": 0, "audio_stream_index": -1, "audio_timebase": {"den": 1, "num": 1}, "channel_layout": 4, "channels": 0, "display_ratio": {"den": 3, "num": 4}, "duration": 10.443333625793457, "file_size": "2834900", "fps": {"den": 3133, "num": 75300}, "has_audio": false, "has_single_image": false, "has_video": true, "height": 240, "interlaced_frame": false, "path": "../Wideo/mmedia/eye.mov", "pixel_format": 2, "pixel_ratio": {"den": 1, "num": 1}, "sample_rate": 0, "top_field_first": true, "type": "FFmpegReader", "vcodec": "cinepak", "video_bit_rate": 2171643, "video_length": "251", "video_stream_index": 0, "video_timebase": {"den": 600, "num": 1}, "width": 320, "media_type": "video", "id": "18EPNI99JT"}], "duration": 300, "scale": 16, "tick_pixels": 100, "playhead_position": 0, "profile": "HDV 720 24p", "layers": [{"id": "L0", "label": "", "number": 0, "y": 0, "lock": false}, {"id": "L1", "label": "", "number": 1, "y": 0, "lock": false}, {"id": "L2", "label": "", "number": 2, "y": 0, "lock": false}, {"id": "L3", "label": "", "number": 3, "y": 0, "lock": false}, {"id": "L4", "label": "", "number": 4, "y": 0, "lock": false}], "markers": [], "progress": [], "history": {"undo": [{"type": "update", "key": ["clips", {"id": "FMZJL1LFSN"}], "value": {"id": "FMZJL1LFSN", "layer": 1, "position": 25.3575, "image": "/home/kl2ag1/.openshot_qt/thumbnail/NJU2K5CN93.png", "start": 0, "end": 2.0566660308837887}, "partial": false, "old_values": {"alpha": {"Points": [{"co": {"X": 1, "Y": 1}, "interpolation": 2}]}, "anchor": 0, "channel_filter": {"Points": [{"co": {"X": 1, "Y": -1}, "interpolation": 2}]}, "channel_mapping": {"Points": [{"co": {"X": 1, "Y": -1}, "interpolation": 2}]}, "crop_height": {"Points": [{"co": {"X": 1, "Y": -1}, "interpolation": 2}]}, "crop_width": {"Points": [{"co": {"X": 1, "Y": -1}, "interpolation": 2}]}, "crop_x": {"Points": [{"co": {"X": 1, "Y": 0}, "interpolation": 2}]}, "crop_y": {"Points": [{"co": {"X": 1, "Y": 0}, "interpolation": 2}]}, "display": 0, "duration": 17.41666603088379, "effects": [], "end": 5.256666030883789, "gravity": 4, "has_audio": {"Points": [{"co": {"X": 1, "Y": -1}, "interpolation": 2}]}, "has_video": {"Points": [{"co": {"X": 1, "Y": -1}, "interpolation": 2}]}, "id": "FMZJL1LFSN", "layer": 1, "location_x": {"Points": [{"co": {"X": 1, "Y": 0}, "interpolation": 2}]}, "location_y": {"Points": [{"co": {"X": 1, "Y": 0}, "interpolation": 2}]}, "perspective_c1_x": {"Points": [{"co": {"X": 1, "Y": -1}, "interpolation": 2}]}, "perspective_c1_y": {"Points": [{"co": {"X": 1, "Y": -1}, "interpolation": 2}]}, "perspective_c2_x": {"Points": [{"co": {"X": 1, "Y": -1}, "interpolation": 2}]}, "perspective_c2_y": {"Points": [{"co": {"X": 1, "Y": -1}, "interpolation": 2}]}, "perspective_c3_x": {"Points": [{"co": {"X": 1, "Y": -1}, "interpolation": 2}]}, "perspective_c3_y": {"Points": [{"co": {"X": 1, "Y": -1}, "interpolation": 2}]}, "perspective_c4_x": {"Points": [{"co": {"X": 1, "Y": -1}, "interpolation": 2}]}, "perspective_c4_y": {"Points": [{"co": {"X": 1, "Y": -1}, "interpolation": 2}]}, "position": 25.3575, "reader": {"acodec": "", "audio_bit_rate": 0, "audio_stream_index": -1, "audio_timebase": {"den": 1, "num": 1}, "channel_layout": 4, "channels": 0, "display_ratio": {"den": 3, "num": 4}, "duration": 17.41666603088379, "file_size": "4476679", "fps": {"den": 1, "num": 24}, "has_audio": false, "has_single_image": false, "has_video": true, "height": 240, "interlaced_frame": false, "path": "/home/kl2ag1/Wideo/mmedia/abstrct3.mov", "pixel_format": 2, "pixel_ratio": {"den": 1, "num": 1}, "sample_rate": 0, "top_field_first": true, "type": "FFmpegReader", "vcodec": "cinepak", "video_bit_rate": 2056273, "video_length": "418", "video_stream_index": 0, "video_timebase": {"den": 600, "num": 1}, "width": 320}, "rotation": {"Points": [{"co": {"X": 1, "Y": 0}, "interpolation": 2}]}, "scale": 1, "scale_x": {"Points": [{"co": {"X": 1, "Y": 1}, "interpolation": 2}]}, "scale_y": {"Points": [{"co": {"X": 1, "Y": 1}, "interpolation": 2}]}, "shear_x": {"Points": [{"co": {"X": 1, "Y": 0}, "interpolation": 2}]}, "shear_y": {"Points": [{"co": {"X": 1, "Y": 0}, "interpolation": 2}]}, "start": 0, "time": {"Points": [{"co": {"X": 1, "Y": 1}, "interpolation": 2}]}, "volume": {"Points": [{"co": {"X": 1, "Y": 1}, "interpolation": 2}]}, "wave_color": {"alpha": {"Points": [{"co": {"X": 1, "Y": 255}, "handle_left": {"X": 0.5, "Y": 1}, "handle_right": {"X": 0.5, "Y": 0}, "handle_type": 0, "interpolation": 0}]}, "blue": {"Points": [{"co": {"X": 1, "Y": 255}, "handle_left": {"X": 0.5, "Y": 1}, "handle_right": {"X": 0.5, "Y": 0}, "handle_type": 0, "interpolation": 0}]}, "green": {"Points": [{"co": {"X": 1, "Y": 123}, "handle_left": {"X": 0.5, "Y": 1}, "handle_right": {"X": 0.5, "Y": 0}, "handle_type": 0, "interpolation": 0}]}, "red": {"Points": [{"co": {"X": 1, "Y": 0}, "handle_left": {"X": 0.5, "Y": 1}, "handle_right": {"X": 0.5, "Y": 0}, "handle_type": 0, "interpolation": 0}]}}, "waveform": false, "file_id": "NJU2K5CN93", "title": "abstrct3.mov", "image": "/home/kl2ag1/.openshot_qt/thumbnail/NJU2K5CN93.png"}}, {"type": "insert", "key": ["clips"], "value": {"alpha": {"Points": [{"co": {"X": 1, "Y": 1}, "interpolation": 2}]}, "anchor": 0, "channel_filter": {"Points": [{"co": {"X": 1, "Y": -1}, "interpolation": 2}]}, "channel_mapping": {"Points": [{"co": {"X": 1, "Y": -1}, "interpolation": 2}]}, "crop_height": {"Points": [{"co": {"X": 1, "Y": -1}, "interpolation": 2}]}, "crop_width": {"Points": [{"co": {"X": 1, "Y": -1}, "interpolation": 2}]}, "crop_x": {"Points": [{"co": {"X": 1, "Y": 0}, "interpolation": 2}]}, "crop_y": {"Points": [{"co": {"X": 1, "Y": 0}, "interpolation": 2}]}, "display": 0, "duration": 5.605000019073486, "effects": [], "end": 5.605000019073486, "gravity": 4, "has_audio": {"Points": [{"co": {"X": 1, "Y": -1}, "interpolation": 2}]}, "has_video": {"Points": [{"co": {"X": 1, "Y": -1}, "interpolation": 2}]}, "id": "TJFX01QUS8", "layer": 1, "location_x": {"Points": [{"co": {"X": 1, "Y": 0}, "interpolation": 2}]}, "location_y": {"Points": [{"co": {"X": 1, "Y": 0}, "interpolation": 2}]}, "perspective_c1_x": {"Points": [{"co": {"X": 1, "Y": -1}, "interpolation": 2}]}, "perspective_c1_y": {"Points": [{"co": {"X": 1, "Y": -1}, "interpolation": 2}]}, "perspective_c2_x": {"Points": [{"co": {"X": 1, "Y": -1}, "interpolation": 2}]}, "perspective_c2_y": {"Points": [{"co": {"X": 1, "Y": -1}, "interpolation": 2}]}, "perspective_c3_x": {"Points": [{"co": {"X": 1, "Y": -1}, "interpolation": 2}]}, "perspective_c3_y": {"Points": [{"co": {"X": 1, "Y": -1}, "interpolation": 2}]}, "perspective_c4_x": {"Points": [{"co": {"X": 1, "Y": -1}, "interpolation": 2}]}, "perspective_c4_y": {"Points": [{"co": {"X": 1, "Y": -1}, "interpolation": 2}]}, "position": 17.125, "reader": {"acodec": "", "audio_bit_rate": 0, "audio_stream_index": -1, "audio_timebase": {"den": 1, "num": 1}, "channel_layout": 4, "channels": 0, "display_ratio": {"den": 3, "num": 4}, "duration": 5.605000019073486, "file_size": "1584165", "fps": {"den": 1121, "num": 27000}, "has_audio": false, "has_single_image": false, "has_video": true, "height": 240, "interlaced_frame": false, "path": "/home/kl2ag1/Wideo/mmedia/clouds.mov", "pixel_format": 2, "pixel_ratio": {"den": 1, "num": 1}, "sample_rate": 0, "top_field_first": true, "type": "FFmpegReader", "vcodec": "cinepak", "video_bit_rate": 2261074, "video_length": "135", "video_stream_index": 0, "video_timebase": {"den": 600, "num": 1}, "width": 320}, "rotation": {"Points": [{"co": {"X": 1, "Y": 0}, "interpolation": 2}]}, "scale": 1, "scale_x": {"Points": [{"co": {"X": 1, "Y": 1}, "interpolation": 2}]}, "scale_y": {"Points": [{"co": {"X": 1, "Y": 1}, "interpolation": 2}]}, "shear_x": {"Points": [{"co": {"X": 1, "Y": 0}, "interpolation": 2}]}, "shear_y": {"Points": [{"co": {"X": 1, "Y": 0}, "interpolation": 2}]}, "start": 0, "time": {"Points": [{"co": {"X": 1, "Y": 1}, "interpolation": 2}]}, "volume": {"Points": [{"co": {"X": 1, "Y": 1}, "interpolation": 2}]}, "wave_color": {"alpha": {"Points": [{"co": {"X": 1, "Y": 255}, "handle_left": {"X": 0.5, "Y": 1}, "handle_right": {"X": 0.5, "Y": 0}, "handle_type": 0, "interpolation": 0}]}, "blue": {"Points": [{"co": {"X": 1, "Y": 255}, "handle_left": {"X": 0.5, "Y": 1}, "handle_right": {"X": 0.5, "Y": 0}, "handle_type": 0, "interpolation": 0}]}, "green": {"Points": [{"co": {"X": 1, "Y": 123}, "handle_left": {"X": 0.5, "Y": 1}, "handle_right": {"X": 0.5, "Y": 0}, "handle_type": 0, "interpolation": 0}]}, "red": {"Points": [{"co": {"X": 1, "Y": 0}, "handle_left": {"X": 0.5, "Y": 1}, "handle_right": {"X": 0.5, "Y": 0}, "handle_type": 0, "interpolation": 0}]}}, "waveform": false, "file_id": "28R7BVCSAA", "title": "clouds.mov", "image": "/home/kl2ag1/.openshot_qt/thumbnail/28R7BVCSAA.png"}, "partial": false, "old_values": [{"alpha": {"Points": [{"co": {"X": 1, "Y": 1}, "interpolation": 2}]}, "anchor": 0, "channel_filter": {"Points": [{"co": {"X": 1, "Y": -1}, "interpolation": 2}]}, "channel_mapping": {"Points": [{"co": {"X": 1, "Y": -1}, "interpolation": 2}]}, "crop_height": {"Points": [{"co": {"X": 1, "Y": -1}, "interpolation": 2}]}, "crop_width": {"Points": [{"co": {"X": 1, "Y": -1}, "interpolation": 2}]}, "crop_x": {"Points": [{"co": {"X": 1, "Y": 0}, "interpolation": 2}]}, "crop_y": {"Points": [{"co": {"X": 1, "Y": 0}, "interpolation": 2}]}, "display": 0, "duration": 15.981666564941406, "effects": [], "end": 15.981666564941406, "gravity": 4, "has_audio": {"Points": [{"co": {"X": 1, "Y": -1}, "interpolation": 2}]}, "has_video": {"Points": [{"co": {"X": 1, "Y": -1}, "interpolation": 2}]}, "id": "AFA3Z9CD6N", "layer": 2, "location_x": {"Points": [{"co": {"X": 1, "Y": 0}, "interpolation": 2}]}, "location_y": {"Points": [{"co": {"X": 1, "Y": 0}, "interpolation": 2}]}, "perspective_c1_x": {"Points": [{"co": {"X": 1, "Y": -1}, "interpolation": 2}]}, "perspective_c1_y": {"Points": [{"co": {"X": 1, "Y": -1}, "interpolation": 2}]}, "perspective_c2_x": {"Points": [{"co": {"X": 1, "Y": -1}, "interpolation": 2}]}, "perspective_c2_y": {"Points": [{"co": {"X": 1, "Y": -1}, "interpolation": 2}]}, "perspective_c3_x": {"Points": [{"co": {"X": 1, "Y": -1}, "interpolation": 2}]}, "perspective_c3_y": {"Points": [{"co": {"X": 1, "Y": -1}, "interpolation": 2}]}, "perspective_c4_x": {"Points": [{"co": {"X": 1, "Y": -1}, "interpolation": 2}]}, "perspective_c4_y": {"Points": [{"co": {"X": 1, "Y": -1}, "interpolation": 2}]}, "position": 60.8, "reader": {"acodec": "", "audio_bit_rate": 0, "audio_stream_index": -1, "audio_timebase": {"den": 1, "num": 1}, "channel_layout": 4, "channels": 0, "display_ratio": {"den": 3, "num": 4}, "duration": 15.981666564941406, "file_size": "3936862", "fps": {"den": 9589, "num": 230400}, "has_audio": false, "has_single_image": false, "has_video": true, "height": 240, "interlaced_frame": false, "path": "/home/kl2ag1/Wideo/mmedia/b2-2.mov", "pixel_format": 2, "pixel_ratio": {"den": 1, "num": 1}, "sample_rate": 0, "top_field_first": true, "type": "FFmpegReader", "vcodec": "cinepak", "video_bit_rate": 1970689, "video_length": "384", "video_stream_index": 0, "video_timebase": {"den": 600, "num": 1}, "width": 320}, "rotation": {"Points": [{"co": {"X": 1, "Y": 0}, "interpolation": 2}]}, "scale": 1, "scale_x": {"Points": [{"co": {"X": 1, "Y": 1}, "interpolation": 2}]}, "scale_y": {"Points": [{"co": {"X": 1, "Y": 1}, "interpolation": 2}]}, "shear_x": {"Points": [{"co": {"X": 1, "Y": 0}, "interpolation": 2}]}, "shear_y": {"Points": [{"co": {"X": 1, "Y": 0}, "interpolation": 2}]}, "start": 0, "time": {"Points": [{"co": {"X": 1, "Y": 1}, "interpolation": 2}]}, "volume": {"Points": [{"co": {"X": 1, "Y": 1}, "interpolation": 2}]}, "wave_color": {"alpha": {"Points": [{"co": {"X": 1, "Y": 255}, "handle_left": {"X": 0.5, "Y": 1}, "handle_right": {"X": 0.5, "Y": 0}, "handle_type": 0, "interpolation": 0}]}, "blue": {"Points": [{"co": {"X": 1, "Y": 255}, "handle_left": {"X": 0.5, "Y": 1}, "handle_right": {"X": 0.5, "Y": 0}, "handle_type": 0, "interpolation": 0}]}, "green": {"Points": [{"co": {"X": 1, "Y": 123}, "handle_left": {"X": 0.5, "Y": 1}, "handle_right": {"X": 0.5, "Y": 0}, "handle_type": 0, "interpolation": 0}]}, "red": {"Points": [{"co": {"X": 1, "Y": 0}, "handle_left": {"X": 0.5, "Y": 1}, "handle_right": {"X": 0.5, "Y": 0}, "handle_type": 0, "interpolation": 0}]}}, "waveform": false, "file_id": "GX3CDKTQ5N", "title": "b2-2.mov", "image": "/home/kl2ag1/.openshot_qt/thumbnail/GX3CDKTQ5N.png"}, {"alpha": {"Points": [{"co": {"X": 1, "Y": 1}, "interpolation": 2}]}, "anchor": 0, "channel_filter": {"Points": [{"co": {"X": 1, "Y": -1}, "interpolation": 2}]}, "channel_mapping": {"Points": [{"co": {"X": 1, "Y": -1}, "interpolation": 2}]}, "crop_height": {"Points": [{"co": {"X": 1, "Y": -1}, "interpolation": 2}]}, "crop_width": {"Points": [{"co": {"X": 1, "Y": -1}, "interpolation": 2}]}, "crop_x": {"Points": [{"co": {"X": 1, "Y": 0}, "interpolation": 2}]}, "crop_y": {"Points": [{"co": {"X": 1, "Y": 0}, "interpolation": 2}]}, "display": 0, "duration": 10.443333625793457, "effects": [], "end": 10.443333625793457, "gravity": 4, "has_audio": {"Points": [{"co": {"X": 1, "Y": -1}, "interpolation": 2}]}, "has_video": {"Points": [{"co": {"X": 1, "Y": -1}, "interpolation": 2}]}, "id": "CB5RRDT1IB", "layer": 2, "location_x": {"Points": [{"co": {"X": 1, "Y": 0}, "interpolation": 2}]}, "location_y": {"Points": [{"co": {"X": 1, "Y": 0}, "interpolation": 2}]}, "perspective_c1_x": {"Points": [{"co": {"X": 1, "Y": -1}, "interpolation": 2}]}, "perspective_c1_y": {"Points": [{"co": {"X": 1, "Y": -1}, "interpolation": 2}]}, "perspective_c2_x": {"Points": [{"co": {"X": 1, "Y": -1}, "interpolation": 2}]}, "perspective_c2_y": {"Points": [{"co": {"X": 1, "Y": -1}, "interpolation": 2}]}, "perspective_c3_x": {"Points": [{"co": {"X": 1, "Y": -1}, "interpolation": 2}]}, "perspective_c3_y": {"Points": [{"co": {"X": 1, "Y": -1}, "interpolation": 2}]}, "perspective_c4_x": {"Points": [{"co": {"X": 1, "Y": -1}, "interpolation": 2}]}, "perspective_c4_y": {"Points": [{"co": {"X": 1, "Y": -1}, "interpolation": 2}]}, "position": 57.6525, "reader": {"acodec": "", "audio_bit_rate": 0, "audio_stream_index": -1, "audio_timebase": {"den": 1, "num": 1}, "channel_layout": 4, "channels": 0, "display_ratio": {"den": 3, "num": 4}, "duration": 10.443333625793457, "file_size": "2834900", "fps": {"den": 3133, "num": 75300}, "has_audio": false, "has_single_image": false, "has_video": true, "height": 240, "interlaced_frame": false, "path": "/home/kl2ag1/Wideo/mmedia/eye.mov", "pixel_format": 2, "pixel_ratio": {"den": 1, "num": 1}, "sample_rate": 0, "top_field_first": true, "type": "FFmpegReader", "vcodec": "cinepak", "video_bit_rate": 2171643, "video_length": "251", "video_stream_index": 0, "video_timebase": {"den": 600, "num": 1}, "width": 320}, "rotation": {"Points": [{"co": {"X": 1, "Y": 0}, "interpolation": 2}]}, "scale": 1, "scale_x": {"Points": [{"co": {"X": 1, "Y": 1}, "interpolation": 2}]}, "scale_y": {"Points": [{"co": {"X": 1, "Y": 1}, "interpolation": 2}]}, "shear_x": {"Points": [{"co": {"X": 1, "Y": 0}, "interpolation": 2}]}, "shear_y": {"Points": [{"co": {"X": 1, "Y": 0}, "interpolation": 2}]}, "start": 0, "time": {"Points": [{"co": {"X": 1, "Y": 1}, "interpolation": 2}]}, "volume": {"Points": [{"co": {"X": 1, "Y": 1}, "interpolation": 2}]}, "wave_color": {"alpha": {"Points": [{"co": {"X": 1, "Y": 255}, "handle_left": {"X": 0.5, "Y": 1}, "handle_right": {"X": 0.5, "Y": 0}, "handle_type": 0, "interpolation": 0}]}, "blue": {"Points": [{"co": {"X": 1, "Y": 255}, "handle_left": {"X": 0.5, "Y": 1}, "handle_right": {"X": 0.5, "Y": 0}, "handle_type": 0, "interpolation": 0}]}, "green": {"Points": [{"co": {"X": 1, "Y": 123}, "handle_left": {"X": 0.5, "Y": 1}, "handle_right": {"X": 0.5, "Y": 0}, "handle_type": 0, "interpolation": 0}]}, "red": {"Points": [{"co": {"X": 1, "Y": 0}, "handle_left": {"X": 0.5, "Y": 1}, "handle_right": {"X": 0.5, "Y": 0}, "handle_type": 0, "interpolation": 0}]}}, "waveform": false, "file_id": "18EPNI99JT", "title": "eye.mov", "image": "/home/kl2ag1/.openshot_qt/thumbnail/18EPNI99JT.png"}, {"alpha": {"Points": [{"co": {"X": 1, "Y": 1}, "interpolation": 2}]}, "anchor": 0, "channel_filter": {"Points": [{"co": {"X": 1, "Y": -1}, "interpolation": 2}]}, "channel_mapping": {"Points": [{"co": {"X": 1, "Y": -1}, "interpolation": 2}]}, "crop_height": {"Points": [{"co": {"X": 1, "Y": -1}, "interpolation": 2}]}, "crop_width": {"Points": [{"co": {"X": 1, "Y": -1}, "interpolation": 2}]}, "crop_x": {"Points": [{"co": {"X": 1, "Y": 0}, "interpolation": 2}]}, "crop_y": {"Points": [{"co": {"X": 1, "Y": 0}, "interpolation": 2}]}, "display": 0, "duration": 22.2549991607666, "effects": [], "end": 19.854999160766603, "gravity": 4, "has_audio": {"Points": [{"co": {"X": 1, "Y": -1}, "interpolation": 2}]}, "has_video": {"Points": [{"co": {"X": 1, "Y": -1}, "interpolation": 2}]}, "id": "V2IYY919CB", "layer": 3, "location_x": {"Points": [{"co": {"X": 1, "Y": 0}, "interpolation": 2}]}, "location_y": {"Points": [{"co": {"X": 1, "Y": 0}, "interpolation": 2}]}, "perspective_c1_x": {"Points": [{"co": {"X": 1, "Y": -1}, "interpolation": 2}]}, "perspective_c1_y": {"Points": [{"co": {"X": 1, "Y": -1}, "interpolation": 2}]}, "perspective_c2_x": {"Points": [{"co": {"X": 1, "Y": -1}, "interpolation": 2}]}, "perspective_c2_y": {"Points": [{"co": {"X": 1, "Y": -1}, "interpolation": 2}]}, "perspective_c3_x": {"Points": [{"co": {"X": 1, "Y": -1}, "interpolation": 2}]}, "perspective_c3_y": {"Points": [{"co": {"X": 1, "Y": -1}, "interpolation": 2}]}, "perspective_c4_x": {"Points": [{"co": {"X": 1, "Y": -1}, "interpolation": 2}]}, "perspective_c4_y": {"Points": [{"co": {"X": 1, "Y": -1}, "interpolation": 2}]}, "position": 82.84, "reader": {"acodec": "", "audio_bit_rate": 0, "audio_stream_index": -1, "audio_timebase": {"den": 1, "num": 1}, "channel_layout": 4, "channels": 0, "display_ratio": {"den": 3, "num": 4}, "duration": 22.2549991607666, "file_size": "6064208", "fps": {"den": 4451, "num": 107000}, "has_audio": false, "has_single_image": false, "has_video": true, "height": 240, "interlaced_frame": false, "path": "/home/kl2ag1/Wideo/mmedia/sunset.mov", "pixel_format": 2, "pixel_ratio": {"den": 1, "num": 1}, "sample_rate": 0, "top_field_first": true, "type": "FFmpegReader", "vcodec": "cinepak", "video_bit_rate": 2179899, "video_length": "535", "video_stream_index": 0, "video_timebase": {"den": 600, "num": 1}, "width": 320}, "rotation": {"Points": [{"co": {"X": 1, "Y": 0}, "interpolation": 2}]}, "scale": 1, "scale_x": {"Points": [{"co": {"X": 1, "Y": 1}, "interpolation": 2}]}, "scale_y": {"Points": [{"co": {"X": 1, "Y": 1}, "interpolation": 2}]}, "shear_x": {"Points": [{"co": {"X": 1, "Y": 0}, "interpolation": 2}]}, "shear_y": {"Points": [{"co": {"X": 1, "Y": 0}, "interpolation": 2}]}, "start": 0, "time": {"Points": [{"co": {"X": 1, "Y": 1}, "interpolation": 2}]}, "volume": {"Points": [{"co": {"X": 1, "Y": 1}, "interpolation": 2}]}, "wave_color": {"alpha": {"Points": [{"co": {"X": 1, "Y": 255}, "handle_left": {"X": 0.5, "Y": 1}, "handle_right": {"X": 0.5, "Y": 0}, "handle_type": 0, "interpolation": 0}]}, "blue": {"Points": [{"co": {"X": 1, "Y": 255}, "handle_left": {"X": 0.5, "Y": 1}, "handle_right": {"X": 0.5, "Y": 0}, "handle_type": 0, "interpolation": 0}]}, "green": {"Points": [{"co": {"X": 1, "Y": 123}, "handle_left": {"X": 0.5, "Y": 1}, "handle_right": {"X": 0.5, "Y": 0}, "handle_type": 0, "interpolation": 0}]}, "red": {"Points": [{"co": {"X": 1, "Y": 0}, "handle_left": {"X": 0.5, "Y": 1}, "handle_right": {"X": 0.5, "Y": 0}, "handle_type": 0, "interpolation": 0}]}}, "waveform": false, "file_id": "ZYK8RBW5S4", "title": "sunset.mov", "image": "/home/kl2ag1/.openshot_qt/thumbnail/ZYK8RBW5S4.png"}, {"alpha": {"Points": [{"co": {"X": 1, "Y": 1}, "interpolation": 2}]}, "anchor": 0, "channel_filter": {"Points": [{"co": {"X": 1, "Y": -1}, "interpolation": 2}]}, "channel_mapping": {"Points": [{"co": {"X": 1, "Y": -1}, "interpolation": 2}]}, "crop_height": {"Points": [{"co": {"X": 1, "Y": -1}, "interpolation": 2}]}, "crop_width": {"Points": [{"co": {"X": 1, "Y": -1}, "interpolation": 2}]}, "crop_x": {"Points": [{"co": {"X": 1, "Y": 0}, "interpolation": 2}]}, "crop_y": {"Points": [{"co": {"X": 1, "Y": 0}, "interpolation": 2}]}, "display": 0, "duration": 12.71166706085205, "effects": [], "end": 12.71166706085205, "gravity": 4, "has_audio": {"Points": [{"co": {"X": 1, "Y": -1}, "interpolation": 2}]}, "has_video": {"Points": [{"co": {"X": 1, "Y": -1}, "interpolation": 2}]}, "id": "H9MVU9I6KM", "layer": 0, "location_x": {"Points": [{"co": {"X": 1, "Y": 0}, "interpolation": 2}]}, "location_y": {"Points": [{"co": {"X": 1, "Y": 0}, "interpolation": 2}]}, "perspective_c1_x": {"Points": [{"co": {"X": 1, "Y": -1}, "interpolation": 2}]}, "perspective_c1_y": {"Points": [{"co": {"X": 1, "Y": -1}, "interpolation": 2}]}, "perspective_c2_x": {"Points": [{"co": {"X": 1, "Y": -1}, "interpolation": 2}]}, "perspective_c2_y": {"Points": [{"co": {"X": 1, "Y": -1}, "interpolation": 2}]}, "perspective_c3_x": {"Points": [{"co": {"X": 1, "Y": -1}, "interpolation": 2}]}, "perspective_c3_y": {"Points": [{"co": {"X": 1, "Y": -1}, "interpolation": 2}]}, "perspective_c4_x": {"Points": [{"co": {"X": 1, "Y": -1}, "interpolation": 2}]}, "perspective_c4_y": {"Points": [{"co": {"X": 1, "Y": -1}, "interpolation": 2}]}, "position": 104.8, "reader": {"acodec": "", "audio_bit_rate": 0, "audio_stream_index": -1, "audio_timebase": {"den": 1, "num": 1}, "channel_layout": 4, "channels": 0, "display_ratio": {"den": 3, "num": 4}, "duration": 12.71166706085205, "file_size": "3389529", "fps": {"den": 7627, "num": 183600}, "has_audio": false, "has_single_image": false, "has_video": true, "height": 240, "interlaced_frame": false, "path": "/home/kl2ag1/Wideo/mmedia/river.mov", "pixel_format": 2, "pixel_ratio": {"den": 1, "num": 1}, "sample_rate": 0, "top_field_first": true, "type": "FFmpegReader", "vcodec": "cinepak", "video_bit_rate": 2133176, "video_length": "306", "video_stream_index": 0, "video_timebase": {"den": 600, "num": 1}, "width": 320}, "rotation": {"Points": [{"co": {"X": 1, "Y": 0}, "interpolation": 2}]}, "scale": 1, "scale_x": {"Points": [{"co": {"X": 1, "Y": 1}, "interpolation": 2}]}, "scale_y": {"Points": [{"co": {"X": 1, "Y": 1}, "interpolation": 2}]}, "shear_x": {"Points": [{"co": {"X": 1, "Y": 0}, "interpolation": 2}]}, "shear_y": {"Points": [{"co": {"X": 1, "Y": 0}, "interpolation": 2}]}, "start": 0, "time": {"Points": [{"co": {"X": 1, "Y": 1}, "interpolation": 2}]}, "volume": {"Points": [{"co": {"X": 1, "Y": 1}, "interpolation": 2}]}, "wave_color": {"alpha": {"Points": [{"co": {"X": 1, "Y": 255}, "handle_left": {"X": 0.5, "Y": 1}, "handle_right": {"X": 0.5, "Y": 0}, "handle_type": 0, "interpolation": 0}]}, "blue": {"Points": [{"co": {"X": 1, "Y": 255}, "handle_left": {"X": 0.5, "Y": 1}, "handle_right": {"X": 0.5, "Y": 0}, "handle_type": 0, "interpolation": 0}]}, "green": {"Points": [{"co": {"X": 1, "Y": 123}, "handle_left": {"X": 0.5, "Y": 1}, "handle_right": {"X": 0.5, "Y": 0}, "handle_type": 0, "interpolation": 0}]}, "red": {"Points": [{"co": {"X": 1, "Y": 0}, "handle_left": {"X": 0.5, "Y": 1}, "handle_right": {"X": 0.5, "Y": 0}, "handle_type": 0, "interpolation": 0}]}}, "waveform": false, "file_id": "CYBRTPCRWK", "title": "river.mov", "image": "/home/kl2ag1/.openshot_qt/thumbnail/CYBRTPCRWK.png"}, {"alpha": {"Points": [{"co": {"X": 1, "Y": 1}, "interpolation": 2}]}, "anchor": 0, "channel_filter": {"Points": [{"co": {"X": 1, "Y": -1}, "interpolation": 2}]}, "channel_mapping": {"Points": [{"co": {"X": 1, "Y": -1}, "interpolation": 2}]}, "crop_height": {"Points": [{"co": {"X": 1, "Y": -1}, "interpolation": 2}]}, "crop_width": {"Points": [{"co": {"X": 1, "Y": -1}, "interpolation": 2}]}, "crop_x": {"Points": [{"co": {"X": 1, "Y": 0}, "interpolation": 2}]}, "crop_y": {"Points": [{"co": {"X": 1, "Y": 0}, "interpolation": 2}]}, "display": 0, "duration": 27.393333435058594, "effects": [], "end": 9.953333435058592, "gravity": 4, "has_audio": {"Points": [{"co": {"X": 1, "Y": -1}, "interpolation": 2}]}, "has_video": {"Points": [{"co": {"X": 1, "Y": -1}, "interpolation": 2}]}, "id": "43F077NICS", "layer": 1, "location_x": {"Points": [{"co": {"X": 1, "Y": 0}, "interpolation": 2}]}, "location_y": {"Points": [{"co": {"X": 1, "Y": 0}, "interpolation": 2}]}, "perspective_c1_x": {"Points": [{"co": {"X": 1, "Y": -1}, "interpolation": 2}]}, "perspective_c1_y": {"Points": [{"co": {"X": 1, "Y": -1}, "interpolation": 2}]}, "perspective_c2_x": {"Points": [{"co": {"X": 1, "Y": -1}, "interpolation": 2}]}, "perspective_c2_y": {"Points": [{"co": {"X": 1, "Y": -1}, "interpolation": 2}]}, "perspective_c3_x": {"Points": [{"co": {"X": 1, "Y": -1}, "interpolation": 2}]}, "perspective_c3_y": {"Points": [{"co": {"X": 1, "Y": -1}, "interpolation": 2}]}, "perspective_c4_x": {"Points": [{"co": {"X": 1, "Y": -1}, "interpolation": 2}]}, "perspective_c4_y": {"Points": [{"co": {"X": 1, "Y": -1}, "interpolation": 2}]}, "position": 0, "reader": {"acodec": "", "audio_bit_rate": 0, "audio_stream_index": -1, "audio_timebase": {"den": 1, "num": 1}, "channel_layout": 4, "channels": 0, "display_ratio": {"den": 3, "num": 4}, "duration": 27.393333435058594, "file_size": "7497546", "fps": {"den": 587, "num": 14100}, "has_audio": false, "has_single_image": false, "has_video": true, "height": 240, "interlaced_frame": false, "path": "/home/kl2ag1/Wideo/mmedia/sunrise.mov", "pixel_format": 2, "pixel_ratio": {"den": 1, "num": 1}, "sample_rate": 0, "top_field_first": true, "type": "FFmpegReader", "vcodec": "cinepak", "video_bit_rate": 2189597, "video_length": "658", "video_stream_index": 0, "video_timebase": {"den": 600, "num": 1}, "width": 320}, "rotation": {"Points": [{"co": {"X": 1, "Y": 0}, "interpolation": 2}]}, "scale": 1, "scale_x": {"Points": [{"co": {"X": 1, "Y": 1}, "interpolation": 2}]}, "scale_y": {"Points": [{"co": {"X": 1, "Y": 1}, "interpolation": 2}]}, "shear_x": {"Points": [{"co": {"X": 1, "Y": 0}, "interpolation": 2}]}, "shear_y": {"Points": [{"co": {"X": 1, "Y": 0}, "interpolation": 2}]}, "start": 0, "time": {"Points": [{"co": {"X": 1, "Y": 1}, "interpolation": 2}]}, "volume": {"Points": [{"co": {"X": 1, "Y": 1}, "interpolation": 2}]}, "wave_color": {"alpha": {"Points": [{"co": {"X": 1, "Y": 255}, "handle_left": {"X": 0.5, "Y": 1}, "handle_right": {"X": 0.5, "Y": 0}, "handle_type": 0, "interpolation": 0}]}, "blue": {"Points": [{"co": {"X": 1, "Y": 255}, "handle_left": {"X": 0.5, "Y": 1}, "handle_right": {"X": 0.5, "Y": 0}, "handle_type": 0, "interpolation": 0}]}, "green": {"Points": [{"co": {"X": 1, "Y": 123}, "handle_left": {"X": 0.5, "Y": 1}, "handle_right": {"X": 0.5, "Y": 0}, "handle_type": 0, "interpolation": 0}]}, "red": {"Points": [{"co": {"X": 1, "Y": 0}, "handle_left": {"X": 0.5, "Y": 1}, "handle_right": {"X": 0.5, "Y": 0}, "handle_type": 0, "interpolation": 0}]}}, "waveform": false, "file_id": "B6I35AHDEQ", "title": "sunrise.mov", "image": "/home/kl2ag1/.openshot_qt/thumbnail/B6I35AHDEQ.png"}, {"alpha": {"Points": [{"co": {"X": 1, "Y": 1}, "interpolation": 2}]}, "anchor": 0, "channel_filter": {"Points": [{"co": {"X": 1, "Y": -1}, "interpolation": 2}]}, "channel_mapping": {"Points": [{"co": {"X": 1, "Y": -1}, "interpolation": 2}]}, "crop_height": {"Points": [{"co": {"X": 1, "Y": -1}, "interpolation": 2}]}, "crop_width": {"Points": [{"co": {"X": 1, "Y": -1}, "interpolation": 2}]}, "crop_x": {"Points": [{"co": {"X": 1, "Y": 0}, "interpolation": 2}]}, "crop_y": {"Points": [{"co": {"X": 1, "Y": 0}, "interpolation": 2}]}, "display": 0, "duration": 10.443333625793457, "effects": [], "end": 10.443333625793457, "gravity": 4, "has_audio": {"Points": [{"co": {"X": 1, "Y": -1}, "interpolation": 2}]}, "has_video": {"Points": [{"co": {"X": 1, "Y": -1}, "interpolation": 2}]}, "id": "MWKSO4N479", "layer": 1, "location_x": {"Points": [{"co": {"X": 1, "Y": 0}, "interpolation": 2}]}, "location_y": {"Points": [{"co": {"X": 1, "Y": 0}, "interpolation": 2}]}, "perspective_c1_x": {"Points": [{"co": {"X": 1, "Y": -1}, "interpolation": 2}]}, "perspective_c1_y": {"Points": [{"co": {"X": 1, "Y": -1}, "interpolation": 2}]}, "perspective_c2_x": {"Points": [{"co": {"X": 1, "Y": -1}, "interpolation": 2}]}, "perspective_c2_y": {"Points": [{"co": {"X": 1, "Y": -1}, "interpolation": 2}]}, "perspective_c3_x": {"Points": [{"co": {"X": 1, "Y": -1}, "interpolation": 2}]}, "perspective_c3_y": {"Points": [{"co": {"X": 1, "Y": -1}, "interpolation": 2}]}, "perspective_c4_x": {"Points": [{"co": {"X": 1, "Y": -1}, "interpolation": 2}]}, "perspective_c4_y": {"Points": [{"co": {"X": 1, "Y": -1}, "interpolation": 2}]}, "position": 7.27, "reader": {"acodec": "", "audio_bit_rate": 0, "audio_stream_index": -1, "audio_timebase": {"den": 1, "num": 1}, "channel_layout": 4, "channels": 0, "display_ratio": {"den": 3, "num": 4}, "duration": 10.443333625793457, "file_size": "2834900", "fps": {"den": 3133, "num": 75300}, "has_audio": false, "has_single_image": false, "has_video": true, "height": 240, "interlaced_frame": false, "path": "/home/kl2ag1/Wideo/mmedia/eye.mov", "pixel_format": 2, "pixel_ratio": {"den": 1, "num": 1}, "sample_rate": 0, "top_field_first": true, "type": "FFmpegReader", "vcodec": "cinepak", "video_bit_rate": 2171643, "video_length": "251", "video_stream_index": 0, "video_timebase": {"den": 600, "num": 1}, "width": 320}, "rotation": {"Points": [{"co": {"X": 1, "Y": 0}, "interpolation": 2}]}, "scale": 1, "scale_x": {"Points": [{"co": {"X": 1, "Y": 1}, "interpolation": 2}]}, "scale_y": {"Points": [{"co": {"X": 1, "Y": 1}, "interpolation": 2}]}, "shear_x": {"Points": [{"co": {"X": 1, "Y": 0}, "interpolation": 2}]}, "shear_y": {"Points": [{"co": {"X": 1, "Y": 0}, "interpolation": 2}]}, "start": 0, "time": {"Points": [{"co": {"X": 1, "Y": 1}, "interpolation": 2}]}, "volume": {"Points": [{"co": {"X": 1, "Y": 1}, "interpolation": 2}]}, "wave_color": {"alpha": {"Points": [{"co": {"X": 1, "Y": 255}, "handle_left": {"X": 0.5, "Y": 1}, "handle_right": {"X": 0.5, "Y": 0}, "handle_type": 0, "interpolation": 0}]}, "blue": {"Points": [{"co": {"X": 1, "Y": 255}, "handle_left": {"X": 0.5, "Y": 1}, "handle_right": {"X": 0.5, "Y": 0}, "handle_type": 0, "interpolation": 0}]}, "green": {"Points": [{"co": {"X": 1, "Y": 123}, "handle_left": {"X": 0.5, "Y": 1}, "handle_right": {"X": 0.5, "Y": 0}, "handle_type": 0, "interpolation": 0}]}, "red": {"Points": [{"co": {"X": 1, "Y": 0}, "handle_left": {"X": 0.5, "Y": 1}, "handle_right": {"X": 0.5, "Y": 0}, "handle_type": 0, "interpolation": 0}]}}, "waveform": false, "file_id": "18EPNI99JT", "title": "eye.mov", "image": "/home/kl2ag1/.openshot_qt/thumbnail/18EPNI99JT.png"}, {"alpha": {"Points": [{"co": {"X": 1, "Y": 1}, "interpolation": 2}]}, "anchor": 0, "channel_filter": {"Points": [{"co": {"X": 1, "Y": -1}, "interpolation": 2}]}, "channel_mapping": {"Points": [{"co": {"X": 1, "Y": -1}, "interpolation": 2}]}, "crop_height": {"Points": [{"co": {"X": 1, "Y": -1}, "interpolation": 2}]}, "crop_width": {"Points": [{"co": {"X": 1, "Y": -1}, "interpolation": 2}]}, "crop_x": {"Points": [{"co": {"X": 1, "Y": 0}, "interpolation": 2}]}, "crop_y": {"Points": [{"co": {"X": 1, "Y": 0}, "interpolation": 2}]}, "display": 0, "duration": 15.981666564941406, "effects": [], "end": 13.261666564941406, "gravity": 4, "has_audio": {"Points": [{"co": {"X": 1, "Y": -1}, "interpolation": 2}]}, "has_video": {"Points": [{"co": {"X": 1, "Y": -1}, "interpolation": 2}]}, "id": "4D4FDRWKOW", "layer": 1, "location_x": {"Points": [{"co": {"X": 1, "Y": 0}, "interpolation": 2}]}, "location_y": {"Points": [{"co": {"X": 1, "Y": 0}, "interpolation": 2}]}, "perspective_c1_x": {"Points": [{"co": {"X": 1, "Y": -1}, "interpolation": 2}]}, "perspective_c1_y": {"Points": [{"co": {"X": 1, "Y": -1}, "interpolation": 2}]}, "perspective_c2_x": {"Points": [{"co": {"X": 1, "Y": -1}, "interpolation": 2}]}, "perspective_c2_y": {"Points": [{"co": {"X": 1, "Y": -1}, "interpolation": 2}]}, "perspective_c3_x": {"Points": [{"co": {"X": 1, "Y": -1}, "interpolation": 2}]}, "perspective_c3_y": {"Points": [{"co": {"X": 1, "Y": -1}, "interpolation": 2}]}, "perspective_c4_x": {"Points": [{"co": {"X": 1, "Y": -1}, "interpolation": 2}]}, "perspective_c4_y": {"Points": [{"co": {"X": 1, "Y": -1}, "interpolation": 2}]}, "position": 15.52, "reader": {"acodec": "", "audio_bit_rate": 0, "audio_stream_index": -1, "audio_timebase": {"den": 1, "num": 1}, "channel_layout": 4, "channels": 0, "display_ratio": {"den": 3, "num": 4}, "duration": 15.981666564941406, "file_size": "3936862", "fps": {"den": 9589, "num": 230400}, "has_audio": false, "has_single_image": false, "has_video": true, "height": 240, "interlaced_frame": false, "path": "/home/kl2ag1/Wideo/mmedia/b2-2.mov", "pixel_format": 2, "pixel_ratio": {"den": 1, "num": 1}, "sample_rate": 0, "top_field_first": true, "type": "FFmpegReader", "vcodec": "cinepak", "video_bit_rate": 1970689, "video_length": "384", "video_stream_index": 0, "video_timebase": {"den": 600, "num": 1}, "width": 320}, "rotation": {"Points": [{"co": {"X": 1, "Y": 0}, "interpolation": 2}]}, "scale": 1, "scale_x": {"Points": [{"co": {"X": 1, "Y": 1}, "interpolation": 2}]}, "scale_y": {"Points": [{"co": {"X": 1, "Y": 1}, "interpolation": 2}]}, "shear_x": {"Points": [{"co": {"X": 1, "Y": 0}, "interpolation": 2}]}, "shear_y": {"Points": [{"co": {"X": 1, "Y": 0}, "interpolation": 2}]}, "start": 0, "time": {"Points": [{"co": {"X": 1, "Y": 1}, "interpolation": 2}]}, "volume": {"Points": [{"co": {"X": 1, "Y": 1}, "interpolation": 2}]}, "wave_color": {"alpha": {"Points": [{"co": {"X": 1, "Y": 255}, "handle_left": {"X": 0.5, "Y": 1}, "handle_right": {"X": 0.5, "Y": 0}, "handle_type": 0, "interpolation": 0}]}, "blue": {"Points": [{"co": {"X": 1, "Y": 255}, "handle_left": {"X": 0.5, "Y": 1}, "handle_right": {"X": 0.5, "Y": 0}, "handle_type": 0, "interpolation": 0}]}, "green": {"Points": [{"co": {"X": 1, "Y": 123}, "handle_left": {"X": 0.5, "Y": 1}, "handle_right": {"X": 0.5, "Y": 0}, "handle_type": 0, "interpolation": 0}]}, "red": {"Points": [{"co": {"X": 1, "Y": 0}, "handle_left": {"X": 0.5, "Y": 1}, "handle_right": {"X": 0.5, "Y": 0}, "handle_type": 0, "interpolation": 0}]}}, "waveform": false, "file_id": "GX3CDKTQ5N", "title": "b2-2.mov", "image": "/home/kl2ag1/.openshot_qt/thumbnail/GX3CDKTQ5N.png"}, {"alpha": {"Points": [{"co": {"X": 1, "Y": 1}, "interpolation": 2}]}, "anchor": 0, "channel_filter": {"Points": [{"co": {"X": 1, "Y": -1}, "interpolation": 2}]}, "channel_mapping": {"Points": [{"co": {"X": 1, "Y": -1}, "interpolation": 2}]}, "crop_height": {"Points": [{"co": {"X": 1, "Y": -1}, "interpolation": 2}]}, "crop_width": {"Points": [{"co": {"X": 1, "Y": -1}, "interpolation": 2}]}, "crop_x": {"Points": [{"co": {"X": 1, "Y": 0}, "interpolation": 2}]}, "crop_y": {"Points": [{"co": {"X": 1, "Y": 0}, "interpolation": 2}]}, "display": 0, "duration": 17.41666603088379, "effects": [], "end": 2.0566660308837887, "gravity": 4, "has_audio": {"Points": [{"co": {"X": 1, "Y": -1}, "interpolation": 2}]}, "has_video": {"Points": [{"co": {"X": 1, "Y": -1}, "interpolation": 2}]}, "id": "FMZJL1LFSN", "layer": 1, "location_x": {"Points": [{"co": {"X": 1, "Y": 0}, "interpolation": 2}]}, "location_y": {"Points": [{"co": {"X": 1, "Y": 0}, "interpolation": 2}]}, "perspective_c1_x": {"Points": [{"co": {"X": 1, "Y": -1}, "interpolation": 2}]}, "perspective_c1_y": {"Points": [{"co": {"X": 1, "Y": -1}, "interpolation": 2}]}, "perspective_c2_x": {"Points": [{"co": {"X": 1, "Y": -1}, "interpolation": 2}]}, "perspective_c2_y": {"Points": [{"co": {"X": 1, "Y": -1}, "interpolation": 2}]}, "perspective_c3_x": {"Points": [{"co": {"X": 1, "Y": -1}, "interpolation": 2}]}, "perspective_c3_y": {"Points": [{"co": {"X": 1, "Y": -1}, "interpolation": 2}]}, "perspective_c4_x": {"Points": [{"co": {"X": 1, "Y": -1}, "interpolation": 2}]}, "perspective_c4_y": {"Points": [{"co": {"X": 1, "Y": -1}, "interpolation": 2}]}, "position": 25.3575, "reader": {"acodec": "", "audio_bit_rate": 0, "audio_stream_index": -1, "audio_timebase": {"den": 1, "num": 1}, "channel_layout": 4, "channels": 0, "display_ratio": {"den": 3, "num": 4}, "duration": 17.41666603088379, "file_size": "4476679", "fps": {"den": 1, "num": 24}, "has_audio": false, "has_single_image": false, "has_video": true, "height": 240, "interlaced_frame": false, "path": "/home/kl2ag1/Wideo/mmedia/abstrct3.mov", "pixel_format": 2, "pixel_ratio": {"den": 1, "num": 1}, "sample_rate": 0, "top_field_first": true, "type": "FFmpegReader", "vcodec": "cinepak", "video_bit_rate": 2056273, "video_length": "418", "video_stream_index": 0, "video_timebase": {"den": 600, "num": 1}, "width": 320}, "rotation": {"Points": [{"co": {"X": 1, "Y": 0}, "interpolation": 2}]}, "scale": 1, "scale_x": {"Points": [{"co": {"X": 1, "Y": 1}, "interpolation": 2}]}, "scale_y": {"Points": [{"co": {"X": 1, "Y": 1}, "interpolation": 2}]}, "shear_x": {"Points": [{"co": {"X": 1, "Y": 0}, "interpolation": 2}]}, "shear_y": {"Points": [{"co": {"X": 1, "Y": 0}, "interpolation": 2}]}, "start": 0, "time": {"Points": [{"co": {"X": 1, "Y": 1}, "interpolation": 2}]}, "volume": {"Points": [{"co": {"X": 1, "Y": 1}, "interpolation": 2}]}, "wave_color": {"alpha": {"Points": [{"co": {"X": 1, "Y": 255}, "handle_left": {"X": 0.5, "Y": 1}, "handle_right": {"X": 0.5, "Y": 0}, "handle_type": 0, "interpolation": 0}]}, "blue": {"Points": [{"co": {"X": 1, "Y": 255}, "handle_left": {"X": 0.5, "Y": 1}, "handle_right": {"X": 0.5, "Y": 0}, "handle_type": 0, "interpolation": 0}]}, "green": {"Points": [{"co": {"X": 1, "Y": 123}, "handle_left": {"X": 0.5, "Y": 1}, "handle_right": {"X": 0.5, "Y": 0}, "handle_type": 0, "interpolation": 0}]}, "red": {"Points": [{"co": {"X": 1, "Y": 0}, "handle_left": {"X": 0.5, "Y": 1}, "handle_right": {"X": 0.5, "Y": 0}, "handle_type": 0, "interpolation": 0}]}}, "waveform": false, "file_id": "NJU2K5CN93", "title": "abstrct3.mov", "image": "/home/kl2ag1/.openshot_qt/thumbnail/NJU2K5CN93.png"}]}, {"type": "update", "key": ["clips", {"id": "TJFX01QUS8"}], "value": {"id": "TJFX01QUS8", "layer": 1, "position": 36.48, "image": "/home/kl2ag1/.openshot_qt/thumbnail/28R7BVCSAA.png", "start": 0, "end": 5.605000019073486}, "partial": false, "old_values": {"alpha": {"Points": [{"co": {"X": 1, "Y": 1}, "interpolation": 2}]}, "anchor": 0, "channel_filter": {"Points": [{"co": {"X": 1, "Y": -1}, "interpolation": 2}]}, "channel_mapping": {"Points": [{"co": {"X": 1, "Y": -1}, "interpolation": 2}]}, "crop_height": {"Points": [{"co": {"X": 1, "Y": -1}, "interpolation": 2}]}, "crop_width": {"Points": [{"co": {"X": 1, "Y": -1}, "interpolation": 2}]}, "crop_x": {"Points": [{"co": {"X": 1, "Y": 0}, "interpolation": 2}]}, "crop_y": {"Points": [{"co": {"X": 1, "Y": 0}, "interpolation": 2}]}, "display": 0, "duration": 5.605000019073486, "effects": [], "end": 5.605000019073486, "gravity": 4, "has_audio": {"Points": [{"co": {"X": 1, "Y": -1}, "interpolation": 2}]}, "has_video": {"Points": [{"co": {"X": 1, "Y": -1}, "interpolation": 2}]}, "id": "TJFX01QUS8", "layer": 4, "location_x": {"Points": [{"co": {"X": 1, "Y": 0}, "interpolation": 2}]}, "location_y": {"Points": [{"co": {"X": 1, "Y": 0}, "interpolation": 2}]}, "perspective_c1_x": {"Points": [{"co": {"X": 1, "Y": -1}, "interpolation": 2}]}, "perspective_c1_y": {"Points": [{"co": {"X": 1, "Y": -1}, "interpolation": 2}]}, "perspective_c2_x": {"Points": [{"co": {"X": 1, "Y": -1}, "interpolation": 2}]}, "perspective_c2_y": {"Points": [{"co": {"X": 1, "Y": -1}, "interpolation": 2}]}, "perspective_c3_x": {"Points": [{"co": {"X": 1, "Y": -1}, "interpolation": 2}]}, "perspective_c3_y": {"Points": [{"co": {"X": 1, "Y": -1}, "interpolation": 2}]}, "perspective_c4_x": {"Points": [{"co": {"X": 1, "Y": -1}, "interpolation": 2}]}, "perspective_c4_y": {"Points": [{"co": {"X": 1, "Y": -1}, "interpolation": 2}]}, "position": 23.04, "reader": {"acodec": "", "audio_bit_rate": 0, "audio_stream_index": -1, "audio_timebase": {"den": 1, "num": 1}, "channel_layout": 4, "channels": 0, "display_ratio": {"den": 3, "num": 4}, "duration": 5.605000019073486, "file_size": "1584165", "fps": {"den": 1121, "num": 27000}, "has_audio": false, "has_single_image": false, "has_video": true, "height": 240, "interlaced_frame": false, "path": "/home/kl2ag1/Wideo/mmedia/clouds.mov", "pixel_format": 2, "pixel_ratio": {"den": 1, "num": 1}, "sample_rate": 0, "top_field_first": true, "type": "FFmpegReader", "vcodec": "cinepak", "video_bit_rate": 2261074, "video_length": "135", "video_stream_index": 0, "video_timebase": {"den": 600, "num": 1}, "width": 320}, "rotation": {"Points": [{"co": {"X": 1, "Y": 0}, "interpolation": 2}]}, "scale": 1, "scale_x": {"Points": [{"co": {"X": 1, "Y": 1}, "interpolation": 2}]}, "scale_y": {"Points": [{"co": {"X": 1, "Y": 1}, "interpolation": 2}]}, "shear_x": {"Points": [{"co": {"X": 1, "Y": 0}, "interpolation": 2}]}, "shear_y": {"Points": [{"co": {"X": 1, "Y": 0}, "interpolation": 2}]}, "start": 0, "time": {"Points": [{"co": {"X": 1, "Y": 1}, "interpolation": 2}]}, "volume": {"Points": [{"co": {"X": 1, "Y": 1}, "interpolation": 2}]}, "wave_color": {"alpha": {"Points": [{"co": {"X": 1, "Y": 255}, "handle_left": {"X": 0.5, "Y": 1}, "handle_right": {"X": 0.5, "Y": 0}, "handle_type": 0, "interpolation": 0}]}, "blue": {"Points": [{"co": {"X": 1, "Y": 255}, "handle_left": {"X": 0.5, "Y": 1}, "handle_right": {"X": 0.5, "Y": 0}, "handle_type": 0, "interpolation": 0}]}, "green": {"Points": [{"co": {"X": 1, "Y": 123}, "handle_left": {"X": 0.5, "Y": 1}, "handle_right": {"X": 0.5, "Y": 0}, "handle_type": 0, "interpolation": 0}]}, "red": {"Points": [{"co": {"X": 1, "Y": 0}, "handle_left": {"X": 0.5, "Y": 1}, "handle_right": {"X": 0.5, "Y": 0}, "handle_type": 0, "interpolation": 0}]}}, "waveform": false, "file_id": "28R7BVCSAA", "title": "clouds.mov", "image": "/home/kl2ag1/.openshot_qt/thumbnail/28R7BVCSAA.png"}}, {"type": "update", "key": ["clips", {"id": "TJFX01QUS8"}], "value": {"id": "TJFX01QUS8", "layer": 1, "position": 25.3575, "image": "/home/kl2ag1/.openshot_qt/thumbnail/28R7BVCSAA.png", "start": 0, "end": 5.605000019073486}, "partial": false, "old_values": {"alpha": {"Points": [{"co": {"X": 1, "Y": 1}, "interpolation": 2}]}, "anchor": 0, "channel_filter": {"Points": [{"co": {"X": 1, "Y": -1}, "interpolation": 2}]}, "channel_mapping": {"Points": [{"co": {"X": 1, "Y": -1}, "interpolation": 2}]}, "crop_height": {"Points": [{"co": {"X": 1, "Y": -1}, "interpolation": 2}]}, "crop_width": {"Points": [{"co": {"X": 1, "Y": -1}, "interpolation": 2}]}, "crop_x": {"Points": [{"co": {"X": 1, "Y": 0}, "interpolation": 2}]}, "crop_y": {"Points": [{"co": {"X": 1, "Y": 0}, "interpolation": 2}]}, "display": 0, "duration": 5.605000019073486, "effects": [], "end": 5.605000019073486, "gravity": 4, "has_audio": {"Points": [{"co": {"X": 1, "Y": -1}, "interpolation": 2}]}, "has_video": {"Points": [{"co": {"X": 1, "Y": -1}, "interpolation": 2}]}, "id": "TJFX01QUS8", "layer": 1, "location_x": {"Points": [{"co": {"X": 1, "Y": 0}, "interpolation": 2}]}, "location_y": {"Points": [{"co": {"X": 1, "Y": 0}, "interpolation": 2}]}, "perspective_c1_x": {"Points": [{"co": {"X": 1, "Y": -1}, "interpolation": 2}]}, "perspective_c1_y": {"Points": [{"co": {"X": 1, "Y": -1}, "interpolation": 2}]}, "perspective_c2_x": {"Points": [{"co": {"X": 1, "Y": -1}, "interpolation": 2}]}, "perspective_c2_y": {"Points": [{"co": {"X": 1, "Y": -1}, "interpolation": 2}]}, "perspective_c3_x": {"Points": [{"co": {"X": 1, "Y": -1}, "interpolation": 2}]}, "perspective_c3_y": {"Points": [{"co": {"X": 1, "Y": -1}, "interpolation": 2}]}, "perspective_c4_x": {"Points": [{"co": {"X": 1, "Y": -1}, "interpolation": 2}]}, "perspective_c4_y": {"Points": [{"co": {"X": 1, "Y": -1}, "interpolation": 2}]}, "position": 36.48, "reader": {"acodec": "", "audio_bit_rate": 0, "audio_stream_index": -1, "audio_timebase": {"den": 1, "num": 1}, "channel_layout": 4, "channels": 0, "display_ratio": {"den": 3, "num": 4}, "duration": 5.605000019073486, "file_size": "1584165", "fps": {"den": 1121, "num": 27000}, "has_audio": false, "has_single_image": false, "has_video": true, "height": 240, "interlaced_frame": false, "path": "/home/kl2ag1/Wideo/mmedia/clouds.mov", "pixel_format": 2, "pixel_ratio": {"den": 1, "num": 1}, "sample_rate": 0, "top_field_first": true, "type": "FFmpegReader", "vcodec": "cinepak", "video_bit_rate": 2261074, "video_length": "135", "video_stream_index": 0, "video_timebase": {"den": 600, "num": 1}, "width": 320}, "rotation": {"Points": [{"co": {"X": 1, "Y": 0}, "interpolation": 2}]}, "scale": 1, "scale_x": {"Points": [{"co": {"X": 1, "Y": 1}, "interpolation": 2}]}, "scale_y": {"Points": [{"co": {"X": 1, "Y": 1}, "interpolation": 2}]}, "shear_x": {"Points": [{"co": {"X": 1, "Y": 0}, "interpolation": 2}]}, "shear_y": {"Points": [{"co": {"X": 1, "Y": 0}, "interpolation": 2}]}, "start": 0, "time": {"Points": [{"co": {"X": 1, "Y": 1}, "interpolation": 2}]}, "volume": {"Points": [{"co": {"X": 1, "Y": 1}, "interpolation": 2}]}, "wave_color": {"alpha": {"Points": [{"co": {"X": 1, "Y": 255}, "handle_left": {"X": 0.5, "Y": 1}, "handle_right": {"X": 0.5, "Y": 0}, "handle_type": 0, "interpolation": 0}]}, "blue": {"Points": [{"co": {"X": 1, "Y": 255}, "handle_left": {"X": 0.5, "Y": 1}, "handle_right": {"X": 0.5, "Y": 0}, "handle_type": 0, "interpolation": 0}]}, "green": {"Points": [{"co": {"X": 1, "Y": 123}, "handle_left": {"X": 0.5, "Y": 1}, "handle_right": {"X": 0.5, "Y": 0}, "handle_type": 0, "interpolation": 0}]}, "red": {"Points": [{"co": {"X": 1, "Y": 0}, "handle_left": {"X": 0.5, "Y": 1}, "handle_right": {"X": 0.5, "Y": 0}, "handle_type": 0, "interpolation": 0}]}}, "waveform": false, "file_id": "28R7BVCSAA", "title": "clouds.mov", "image": "/home/kl2ag1/.openshot_qt/thumbnail/28R7BVCSAA.png"}}, {"type": "update", "key": ["clips", {"id": "AFA3Z9CD6N"}], "value": {"id": "AFA3Z9CD6N", "layer": 2, "position": 76.94, "image": "/home/kl2ag1/.openshot_qt/thumbnail/GX3CDKTQ5N.png", "start": 0, "end": 15.981666564941406}, "partial": false, "old_values": {"alpha": {"Points": [{"co": {"X": 1, "Y": 1}, "interpolation": 2}]}, "anchor": 0, "channel_filter": {"Points": [{"co": {"X": 1, "Y": -1}, "interpolation": 2}]}, "channel_mapping": {"Points": [{"co": {"X": 1, "Y": -1}, "interpolation": 2}]}, "crop_height": {"Points": [{"co": {"X": 1, "Y": -1}, "interpolation": 2}]}, "crop_width": {"Points": [{"co": {"X": 1, "Y": -1}, "interpolation": 2}]}, "crop_x": {"Points": [{"co": {"X": 1, "Y": 0}, "interpolation": 2}]}, "crop_y": {"Points": [{"co": {"X": 1, "Y": 0}, "interpolation": 2}]}, "display": 0, "duration": 15.981666564941406, "effects": [], "end": 15.981666564941406, "gravity": 4, "has_audio": {"Points": [{"co": {"X": 1, "Y": -1}, "interpolation": 2}]}, "has_video": {"Points": [{"co": {"X": 1, "Y": -1}, "interpolation": 2}]}, "id": "AFA3Z9CD6N", "layer": 2, "location_x": {"Points": [{"co": {"X": 1, "Y": 0}, "interpolation": 2}]}, "location_y": {"Points": [{"co": {"X": 1, "Y": 0}, "interpolation": 2}]}, "perspective_c1_x": {"Points": [{"co": {"X": 1, "Y": -1}, "interpolation": 2}]}, "perspective_c1_y": {"Points": [{"co": {"X": 1, "Y": -1}, "interpolation": 2}]}, "perspective_c2_x": {"Points": [{"co": {"X": 1, "Y": -1}, "interpolation": 2}]}, "perspective_c2_y": {"Points": [{"co": {"X": 1, "Y": -1}, "interpolation": 2}]}, "perspective_c3_x": {"Points": [{"co": {"X": 1, "Y": -1}, "interpolation": 2}]}, "perspective_c3_y": {"Points": [{"co": {"X": 1, "Y": -1}, "interpolation": 2}]}, "perspective_c4_x": {"Points": [{"co": {"X": 1, "Y": -1}, "interpolation": 2}]}, "perspective_c4_y": {"Points": [{"co": {"X": 1, "Y": -1}, "interpolation": 2}]}, "position": 60.8, "reader": {"acodec": "", "audio_bit_rate": 0, "audio_stream_index": -1, "audio_timebase": {"den": 1, "num": 1}, "channel_layout": 4, "channels": 0, "display_ratio": {"den": 3, "num": 4}, "duration": 15.981666564941406, "file_size": "3936862", "fps": {"den": 9589, "num": 230400}, "has_audio": false, "has_single_image": false, "has_video": true, "height": 240, "interlaced_frame": false, "path": "/home/kl2ag1/Wideo/mmedia/b2-2.mov", "pixel_format": 2, "pixel_ratio": {"den": 1, "num": 1}, "sample_rate": 0, "top_field_first": true, "type": "FFmpegReader", "vcodec": "cinepak", "video_bit_rate": 1970689, "video_length": "384", "video_stream_index": 0, "video_timebase": {"den": 600, "num": 1}, "width": 320}, "rotation": {"Points": [{"co": {"X": 1, "Y": 0}, "interpolation": 2}]}, "scale": 1, "scale_x": {"Points": [{"co": {"X": 1, "Y": 1}, "interpolation": 2}]}, "scale_y": {"Points": [{"co": {"X": 1, "Y": 1}, "interpolation": 2}]}, "shear_x": {"Points": [{"co": {"X": 1, "Y": 0}, "interpolation": 2}]}, "shear_y": {"Points": [{"co": {"X": 1, "Y": 0}, "interpolation": 2}]}, "start": 0, "time": {"Points": [{"co": {"X": 1, "Y": 1}, "interpolation": 2}]}, "volume": {"Points": [{"co": {"X": 1, "Y": 1}, "interpolation": 2}]}, "wave_color": {"alpha": {"Points": [{"co": {"X": 1, "Y": 255}, "handle_left": {"X": 0.5, "Y": 1}, "handle_right": {"X": 0.5, "Y": 0}, "handle_type": 0, "interpolation": 0}]}, "blue": {"Points": [{"co": {"X": 1, "Y": 255}, "handle_left": {"X": 0.5, "Y": 1}, "handle_right": {"X": 0.5, "Y": 0}, "handle_type": 0, "interpolation": 0}]}, "green": {"Points": [{"co": {"X": 1, "Y": 123}, "handle_left": {"X": 0.5, "Y": 1}, "handle_right": {"X": 0.5, "Y": 0}, "handle_type": 0, "interpolation": 0}]}, "red": {"Points": [{"co": {"X": 1, "Y": 0}, "handle_left": {"X": 0.5, "Y": 1}, "handle_right": {"X": 0.5, "Y": 0}, "handle_type": 0, "interpolation": 0}]}}, "waveform": false, "file_id": "GX3CDKTQ5N", "title": "b2-2.mov", "image": "/home/kl2ag1/.openshot_qt/thumbnail/GX3CDKTQ5N.png"}}, {"type": "delete", "key": ["clips", {"id": "AFA3Z9CD6N"}], "value": null, "partial": false, "old_values": {"alpha": {"Points": [{"co": {"X": 1, "Y": 1}, "interpolation": 2}]}, "anchor": 0, "channel_filter": {"Points": [{"co": {"X": 1, "Y": -1}, "interpolation": 2}]}, "channel_mapping": {"Points": [{"co": {"X": 1, "Y": -1}, "interpolation": 2}]}, "crop_height": {"Points": [{"co": {"X": 1, "Y": -1}, "interpolation": 2}]}, "crop_width": {"Points": [{"co": {"X": 1, "Y": -1}, "interpolation": 2}]}, "crop_x": {"Points": [{"co": {"X": 1, "Y": 0}, "interpolation": 2}]}, "crop_y": {"Points": [{"co": {"X": 1, "Y": 0}, "interpolation": 2}]}, "display": 0, "duration": 15.981666564941406, "effects": [], "end": 15.981666564941406, "gravity": 4, "has_audio": {"Points": [{"co": {"X": 1, "Y": -1}, "interpolation": 2}]}, "has_video": {"Points": [{"co": {"X": 1, "Y": -1}, "interpolation": 2}]}, "id": "AFA3Z9CD6N", "layer": 2, "location_x": {"Points": [{"co": {"X": 1, "Y": 0}, "interpolation": 2}]}, "location_y": {"Points": [{"co": {"X": 1, "Y": 0}, "interpolation": 2}]}, "perspective_c1_x": {"Points": [{"co": {"X": 1, "Y": -1}, "interpolation": 2}]}, "perspective_c1_y": {"Points": [{"co": {"X": 1, "Y": -1}, "interpolation": 2}]}, "perspective_c2_x": {"Points": [{"co": {"X": 1, "Y": -1}, "interpolation": 2}]}, "perspective_c2_y": {"Points": [{"co": {"X": 1, "Y": -1}, "interpolation": 2}]}, "perspective_c3_x": {"Points": [{"co": {"X": 1, "Y": -1}, "interpolation": 2}]}, "perspective_c3_y": {"Points": [{"co": {"X": 1, "Y": -1}, "interpolation": 2}]}, "perspective_c4_x": {"Points": [{"co": {"X": 1, "Y": -1}, "interpolation": 2}]}, "perspective_c4_y": {"Points": [{"co": {"X": 1, "Y": -1}, "interpolation": 2}]}, "position": 76.94, "reader": {"acodec": "", "audio_bit_rate": 0, "audio_stream_index": -1, "audio_timebase": {"den": 1, "num": 1}, "channel_layout": 4, "channels": 0, "display_ratio": {"den": 3, "num": 4}, "duration": 15.981666564941406, "file_size": "3936862", "fps": {"den": 9589, "num": 230400}, "has_audio": false, "has_single_image": false, "has_video": true, "height": 240, "interlaced_frame": false, "path": "/home/kl2ag1/Wideo/mmedia/b2-2.mov", "pixel_format": 2, "pixel_ratio": {"den": 1, "num": 1}, "sample_rate": 0, "top_field_first": true, "type": "FFmpegReader", "vcodec": "cinepak", "video_bit_rate": 1970689, "video_length": "384", "video_stream_index": 0, "video_timebase": {"den": 600, "num": 1}, "width": 320}, "rotation": {"Points": [{"co": {"X": 1, "Y": 0}, "interpolation": 2}]}, "scale": 1, "scale_x": {"Points": [{"co": {"X": 1, "Y": 1}, "interpolation": 2}]}, "scale_y": {"Points": [{"co": {"X": 1, "Y": 1}, "interpolation": 2}]}, "shear_x": {"Points": [{"co": {"X": 1, "Y": 0}, "interpolation": 2}]}, "shear_y": {"Points": [{"co": {"X": 1, "Y": 0}, "interpolation": 2}]}, "start": 0, "time": {"Points": [{"co": {"X": 1, "Y": 1}, "interpolation": 2}]}, "volume": {"Points": [{"co": {"X": 1, "Y": 1}, "interpolation": 2}]}, "wave_color": {"alpha": {"Points": [{"co": {"X": 1, "Y": 255}, "handle_left": {"X": 0.5, "Y": 1}, "handle_right": {"X": 0.5, "Y": 0}, "handle_type": 0, "interpolation": 0}]}, "blue": {"Points": [{"co": {"X": 1, "Y": 255}, "handle_left": {"X": 0.5, "Y": 1}, "handle_right": {"X": 0.5, "Y": 0}, "handle_type": 0, "interpolation": 0}]}, "green": {"Points": [{"co": {"X": 1, "Y": 123}, "handle_left": {"X": 0.5, "Y": 1}, "handle_right": {"X": 0.5, "Y": 0}, "handle_type": 0, "interpolation": 0}]}, "red": {"Points": [{"co": {"X": 1, "Y": 0}, "handle_left": {"X": 0.5, "Y": 1}, "handle_right": {"X": 0.5, "Y": 0}, "handle_type": 0, "interpolation": 0}]}}, "waveform": false, "file_id": "GX3CDKTQ5N", "title": "b2-2.mov", "image": "/home/kl2ag1/.openshot_qt/thumbnail/GX3CDKTQ5N.png"}}, {"type": "update", "key": ["clips", {"id": "CB5RRDT1IB"}], "value": {"id": "CB5RRDT1IB", "layer": 1, "position": 60.8, "image": "/home/kl2ag1/.openshot_qt/thumbnail/18EPNI99JT.png", "start": 0, "end": 10.443333625793457}, "partial": false, "old_values": {"alpha": {"Points": [{"co": {"X": 1, "Y": 1}, "interpolation": 2}]}, "anchor": 0, "channel_filter": {"Points": [{"co": {"X": 1, "Y": -1}, "interpolation": 2}]}, "channel_mapping": {"Points": [{"co": {"X": 1, "Y": -1}, "interpolation": 2}]}, "crop_height": {"Points": [{"co": {"X": 1, "Y": -1}, "interpolation": 2}]}, "crop_width": {"Points": [{"co": {"X": 1, "Y": -1}, "interpolation": 2}]}, "crop_x": {"Points": [{"co": {"X": 1, "Y": 0}, "interpolation": 2}]}, "crop_y": {"Points": [{"co": {"X": 1, "Y": 0}, "interpolation": 2}]}, "display": 0, "duration": 10.443333625793457, "effects": [], "end": 10.443333625793457, "gravity": 4, "has_audio": {"Points": [{"co": {"X": 1, "Y": -1}, "interpolation": 2}]}, "has_video": {"Points": [{"co": {"X": 1, "Y": -1}, "interpolation": 2}]}, "id": "CB5RRDT1IB", "layer": 2, "location_x": {"Points": [{"co": {"X": 1, "Y": 0}, "interpolation": 2}]}, "location_y": {"Points": [{"co": {"X": 1, "Y": 0}, "interpolation": 2}]}, "perspective_c1_x": {"Points": [{"co": {"X": 1, "Y": -1}, "interpolation": 2}]}, "perspective_c1_y": {"Points": [{"co": {"X": 1, "Y": -1}, "interpolation": 2}]}, "perspective_c2_x": {"Points": [{"co": {"X": 1, "Y": -1}, "interpolation": 2}]}, "perspective_c2_y": {"Points": [{"co": {"X": 1, "Y": -1}, "interpolation": 2}]}, "perspective_c3_x": {"Points": [{"co": {"X": 1, "Y": -1}, "interpolation": 2}]}, "perspective_c3_y": {"Points": [{"co": {"X": 1, "Y": -1}, "interpolation": 2}]}, "perspective_c4_x": {"Points": [{"co": {"X": 1, "Y": -1}, "interpolation": 2}]}, "perspective_c4_y": {"Points": [{"co": {"X": 1, "Y": -1}, "interpolation": 2}]}, "position": 57.6525, "reader": {"acodec": "", "audio_bit_rate": 0, "audio_stream_index": -1, "audio_timebase": {"den": 1, "num": 1}, "channel_layout": 4, "channels": 0, "display_ratio": {"den": 3, "num": 4}, "duration": 10.443333625793457, "file_size": "2834900", "fps": {"den": 3133, "num": 75300}, "has_audio": false, "has_single_image": false, "has_video": true, "height": 240, "interlaced_frame": false, "path": "/home/kl2ag1/Wideo/mmedia/eye.mov", "pixel_format": 2, "pixel_ratio": {"den": 1, "num": 1}, "sample_rate": 0, "top_field_first": true, "type": "FFmpegReader", "vcodec": "cinepak", "video_bit_rate": 2171643, "video_length": "251", "video_stream_index": 0, "video_timebase": {"den": 600, "num": 1}, "width": 320}, "rotation": {"Points": [{"co": {"X": 1, "Y": 0}, "interpolation": 2}]}, "scale": 1, "scale_x": {"Points": [{"co": {"X": 1, "Y": 1}, "interpolation": 2}]}, "scale_y": {"Points": [{"co": {"X": 1, "Y": 1}, "interpolation": 2}]}, "shear_x": {"Points": [{"co": {"X": 1, "Y": 0}, "interpolation": 2}]}, "shear_y": {"Points": [{"co": {"X": 1, "Y": 0}, "interpolation": 2}]}, "start": 0, "time": {"Points": [{"co": {"X": 1, "Y": 1}, "interpolation": 2}]}, "volume": {"Points": [{"co": {"X": 1, "Y": 1}, "interpolation": 2}]}, "wave_color": {"alpha": {"Points": [{"co": {"X": 1, "Y": 255}, "handle_left": {"X": 0.5, "Y": 1}, "handle_right": {"X": 0.5, "Y": 0}, "handle_type": 0, "interpolation": 0}]}, "blue": {"Points": [{"co": {"X": 1, "Y": 255}, "handle_left": {"X": 0.5, "Y": 1}, "handle_right": {"X": 0.5, "Y": 0}, "handle_type": 0, "interpolation": 0}]}, "green": {"Points": [{"co": {"X": 1, "Y": 123}, "handle_left": {"X": 0.5, "Y": 1}, "handle_right": {"X": 0.5, "Y": 0}, "handle_type": 0, "interpolation": 0}]}, "red": {"Points": [{"co": {"X": 1, "Y": 0}, "handle_left": {"X": 0.5, "Y": 1}, "handle_right": {"X": 0.5, "Y": 0}, "handle_type": 0, "interpolation": 0}]}}, "waveform": false, "file_id": "18EPNI99JT", "title": "eye.mov", "image": "/home/kl2ag1/.openshot_qt/thumbnail/18EPNI99JT.png"}}, {"type": "update", "key": ["effects", {"id": "2SN2NEASFC"}], "value": {"id": "2SN2NEASFC", "layer": 1, "position": 53.12, "start": 0, "end": 4.08, "brightness": {"Points": [{"co": {"X": 1, "Y": 1}, "handle_left": {"X": 0.5, "Y": 1}, "handle_right": {"X": 0.5, "Y": 0}, "handle_type": 0, "interpolation": 0}, {"co": {"X": 99, "Y": -1}, "handle_left": {"X": 0.5, "Y": 1}, "handle_right": {"X": 0.5, "Y": 0}, "handle_type": 0, "interpolation": 0}]}, "contrast": {"Points": [{"co": {"X": 1, "Y": 3}, "interpolation": 2}]}}, "partial": false, "old_values": {"id": "2SN2NEASFC", "layer": 2, "title": "Transition", "type": "Mask", "position": 56.88, "start": 0, "end": 4.08, "brightness": {"Points": [{"co": {"X": 1, "Y": 1}, "handle_left": {"X": 0.5, "Y": 1}, "handle_right": {"X": 0.5, "Y": 0}, "handle_type": 0, "interpolation": 0}, {"co": {"X": 99, "Y": -1}, "handle_left": {"X": 0.5, "Y": 1}, "handle_right": {"X": 0.5, "Y": 0}, "handle_type": 0, "interpolation": 0}]}, "contrast": {"Points": [{"co": {"X": 1, "Y": 3}, "interpolation": 2}]}, "reader": {"acodec": "", "audio_bit_rate": 0, "audio_stream_index": -1, "audio_timebase": {"den": 1, "num": 1}, "channel_layout": 4, "channels": 0, "display_ratio": {"den": 4, "num": 5}, "duration": 86400, "file_size": "1658880", "fps": {"den": 1, "num": 30}, "has_audio": false, "has_single_image": true, "has_video": true, "height": 576, "interlaced_frame": false, "path": "/usr/lib/python3/dist-packages/openshot_qt/transitions/common/circle_out_to_in.svg", "pixel_format": -1, "pixel_ratio": {"den": 1, "num": 1}, "sample_rate": 0, "top_field_first": true, "type": "QtImageReader", "vcodec": "", "video_bit_rate": 0, "video_length": "2592000", "video_stream_index": -1, "video_timebase": {"den": 30, "num": 1}, "width": 720}, "replace_image": false}}, {"type": "delete", "key": ["effects", {"id": "2SN2NEASFC"}], "value": null, "partial": false, "old_values": {"id": "2SN2NEASFC", "layer": 1, "title": "Transition", "type": "Mask", "position": 53.12, "start": 0, "end": 4.08, "brightness": {"Points": [{"co": {"X": 1, "Y": 1}, "handle_left": {"X": 0.5, "Y": 1}, "handle_right": {"X": 0.5, "Y": 0}, "handle_type": 0, "interpolation": 0}, {"co": {"X": 99, "Y": -1}, "handle_left": {"X": 0.5, "Y": 1}, "handle_right": {"X": 0.5, "Y": 0}, "handle_type": 0, "interpolation": 0}]}, "contrast": {"Points": [{"co": {"X": 1, "Y": 3}, "interpolation": 2}]}, "reader": {"acodec": "", "audio_bit_rate": 0, "audio_stream_index": -1, "audio_timebase": {"den": 1, "num": 1}, "channel_layout": 4, "channels": 0, "display_ratio": {"den": 4, "num": 5}, "duration": 86400, "file_size": "1658880", "fps": {"den": 1, "num": 30}, "has_audio": false, "has_single_image": true, "has_video": true, "height": 576, "interlaced_frame": false, "path": "/usr/lib/python3/dist-packages/openshot_qt/transitions/common/circle_out_to_in.svg", "pixel_format": -1, "pixel_ratio": {"den": 1, "num": 1}, "sample_rate": 0, "top_field_first": true, "type": "QtImageReader", "vcodec": "", "video_bit_rate": 0, "video_length": "2592000", "video_stream_index": -1, "video_timebase": {"den": 30, "num": 1}, "width": 720}, "replace_image": false}}, {"type": "delete", "key": ["effects", {"id": "VN5ZJ46AXC"}], "value": null, "partial": false, "old_values": {"id": "VN5ZJ46AXC", "layer": 0, "title": "Transition", "type": "Mask", "position": 53.2375, "start": 0, "end": 3.803333435058592, "brightness": {"Points": [{"co": {"X": 1, "Y": 1}, "handle_left": {"X": 0.5, "Y": 1}, "handle_right": {"X": 0.5, "Y": 0}, "handle_type": 0, "interpolation": 0}, {"co": {"X": 92, "Y": -1}, "handle_left": {"X": 0.5, "Y": 1}, "handle_right": {"X": 0.5, "Y": 0}, "handle_type": 0, "interpolation": 0}]}, "contrast": {"Points": [{"co": {"X": 1, "Y": 3}, "interpolation": 2}]}, "reader": {"acodec": "", "audio_bit_rate": 0, "audio_stream_index": -1, "audio_timebase": {"den": 1, "num": 1}, "channel_layout": 4, "channels": 0, "display_ratio": {"den": 4, "num": 5}, "duration": 86400, "file_size": "1658880", "fps": {"den": 1, "num": 30}, "has_audio": false, "has_single_image": true, "has_video": true, "height": 576, "interlaced_frame": false, "path": "/usr/lib/python3/dist-packages/openshot_qt/transitions/common/fade.svg", "pixel_format": -1, "pixel_ratio": {"den": 1, "num": 1}, "sample_rate": 0, "top_field_first": true, "type": "QtImageReader", "vcodec": "", "video_bit_rate": 0, "video_length": "2592000", "video_stream_index": -1, "video_timebase": {"den": 30, "num": 1}, "width": 720}, "replace_image": false}}, {"type": "delete", "key": ["effects", {"id": "85STEC5DBF"}], "value": null, "partial": false, "old_values": {"id": "85STEC5DBF", "layer": 2, "title": "Transition", "type": "Mask", "position": 60.8, "start": 0, "end": 2.0783336257934586, "brightness": {"Points": [{"co": {"X": 1, "Y": 1}, "handle_left": {"X": 0.5, "Y": 1}, "handle_right": {"X": 0.5, "Y": 0}, "handle_type": 0, "interpolation": 0}, {"co": {"X": 51, "Y": -1}, "handle_left": {"X": 0.5, "Y": 1}, "handle_right": {"X": 0.5, "Y": 0}, "handle_type": 0, "interpolation": 0}]}, "contrast": {"Points": [{"co": {"X": 1, "Y": 3}, "interpolation": 2}]}, "reader": {"acodec": "", "audio_bit_rate": 0, "audio_stream_index": -1, "audio_timebase": {"den": 1, "num": 1}, "channel_layout": 4, "channels": 0, "display_ratio": {"den": 4, "num": 5}, "duration": 86400, "file_size": "1658880", "fps": {"den": 1, "num": 30}, "has_audio": false, "has_single_image": true, "has_video": true, "height": 576, "interlaced_frame": false, "path": "/usr/lib/python3/dist-packages/openshot_qt/transitions/common/fade.svg", "pixel_format": -1, "pixel_ratio": {"den": 1, "num": 1}, "sample_rate": 0, "top_field_first": true, "type": "QtImageReader", "vcodec": "", "video_bit_rate": 0, "video_length": "2592000", "video_stream_index": -1, "video_timebase": {"den": 30, "num": 1}, "width": 720}, "replace_image": false}}, {"type": "delete", "key": ["effects", {"id": "IOAVENCJKT"}], "value": null, "partial": false, "old_values": {"id": "IOAVENCJKT", "layer": 1, "title": "Transition", "type": "Mask", "position": 72.7, "start": 0, "end": 4.24, "brightness": {"Points": [{"co": {"X": 1, "Y": 1}, "handle_left": {"X": 0.5, "Y": 1}, "handle_right": {"X": 0.5, "Y": 0}, "handle_type": 0, "interpolation": 0}, {"co": {"X": 103, "Y": -1}, "handle_left": {"X": 0.5, "Y": 1}, "handle_right": {"X": 0.5, "Y": 0}, "handle_type": 0, "interpolation": 0}]}, "contrast": {"Points": [{"co": {"X": 1, "Y": 3}, "interpolation": 2}]}, "reader": {"acodec": "", "audio_bit_rate": 0, "audio_stream_index": -1, "audio_timebase": {"den": 1, "num": 1}, "channel_layout": 4, "channels": 0, "display_ratio": {"den": 4, "num": 5}, "duration": 86400, "file_size": "1658880", "fps": {"den": 1, "num": 30}, "has_audio": false, "has_single_image": true, "has_video": true, "height": 576, "interlaced_frame": false, "path": "/usr/lib/python3/dist-packages/openshot_qt/transitions/common/circle_in_to_out.svg", "pixel_format": -1, "pixel_ratio": {"den": 1, "num": 1}, "sample_rate": 0, "top_field_first": true, "type": "QtImageReader", "vcodec": "", "video_bit_rate": 0, "video_length": "2592000", "video_stream_index": -1, "video_timebase": {"den": 30, "num": 1}, "width": 720}, "replace_image": false}}, {"type": "delete", "key": ["clips", {"id": "CB5RRDT1IB"}], "value": null, "partial": false, "old_values": {"alpha": {"Points": [{"co": {"X": 1, "Y": 1}, "interpolation": 2}]}, "anchor": 0, "channel_filter": {"Points": [{"co": {"X": 1, "Y": -1}, "interpolation": 2}]}, "channel_mapping": {"Points": [{"co": {"X": 1, "Y": -1}, "interpolation": 2}]}, "crop_height": {"Points": [{"co": {"X": 1, "Y": -1}, "interpolation": 2}]}, "crop_width": {"Points": [{"co": {"X": 1, "Y": -1}, "interpolation": 2}]}, "crop_x": {"Points": [{"co": {"X": 1, "Y": 0}, "interpolation": 2}]}, "crop_y": {"Points": [{"co": {"X": 1, "Y": 0}, "interpolation": 2}]}, "display": 0, "duration": 10.443333625793457, "effects": [], "end": 10.443333625793457, "gravity": 4, "has_audio": {"Points": [{"co": {"X": 1, "Y": -1}, "interpolation": 2}]}, "has_video": {"Points": [{"co": {"X": 1, "Y": -1}, "interpolation": 2}]}, "id": "CB5RRDT1IB", "layer": 1, "location_x": {"Points": [{"co": {"X": 1, "Y": 0}, "interpolation": 2}]}, "location_y": {"Points": [{"co": {"X": 1, "Y": 0}, "interpolation": 2}]}, "perspective_c1_x": {"Points": [{"co": {"X": 1, "Y": -1}, "interpolation": 2}]}, "perspective_c1_y": {"Points": [{"co": {"X": 1, "Y": -1}, "interpolation": 2}]}, "perspective_c2_x": {"Points": [{"co": {"X": 1, "Y": -1}, "interpolation": 2}]}, "perspective_c2_y": {"Points": [{"co": {"X": 1, "Y": -1}, "interpolation": 2}]}, "perspective_c3_x": {"Points": [{"co": {"X": 1, "Y": -1}, "interpolation": 2}]}, "perspective_c3_y": {"Points": [{"co": {"X": 1, "Y": -1}, "interpolation": 2}]}, "perspective_c4_x": {"Points": [{"co": {"X": 1, "Y": -1}, "interpolation": 2}]}, "perspective_c4_y": {"Points": [{"co": {"X": 1, "Y": -1}, "interpolation": 2}]}, "position": 60.8, "reader": {"acodec": "", "audio_bit_rate": 0, "audio_stream_index": -1, "audio_timebase": {"den": 1, "num": 1}, "channel_layout": 4, "channels": 0, "display_ratio": {"den": 3, "num": 4}, "duration": 10.443333625793457, "file_size": "2834900", "fps": {"den": 3133, "num": 75300}, "has_audio": false, "has_single_image": false, "has_video": true, "height": 240, "interlaced_frame": false, "path": "/home/kl2ag1/Wideo/mmedia/eye.mov", "pixel_format": 2, "pixel_ratio": {"den": 1, "num": 1}, "sample_rate": 0, "top_field_first": true, "type": "FFmpegReader", "vcodec": "cinepak", "video_bit_rate": 2171643, "video_length": "251", "video_stream_index": 0, "video_timebase": {"den": 600, "num": 1}, "width": 320}, "rotation": {"Points": [{"co": {"X": 1, "Y": 0}, "interpolation": 2}]}, "scale": 1, "scale_x": {"Points": [{"co": {"X": 1, "Y": 1}, "interpolation": 2}]}, "scale_y": {"Points": [{"co": {"X": 1, "Y": 1}, "interpolation": 2}]}, "shear_x": {"Points": [{"co": {"X": 1, "Y": 0}, "interpolation": 2}]}, "shear_y": {"Points": [{"co": {"X": 1, "Y": 0}, "interpolation": 2}]}, "start": 0, "time": {"Points": [{"co": {"X": 1, "Y": 1}, "interpolation": 2}]}, "volume": {"Points": [{"co": {"X": 1, "Y": 1}, "interpolation": 2}]}, "wave_color": {"alpha": {"Points": [{"co": {"X": 1, "Y": 255}, "handle_left": {"X": 0.5, "Y": 1}, "handle_right": {"X": 0.5, "Y": 0}, "handle_type": 0, "interpolation": 0}]}, "blue": {"Points": [{"co": {"X": 1, "Y": 255}, "handle_left": {"X": 0.5, "Y": 1}, "handle_right": {"X": 0.5, "Y": 0}, "handle_type": 0, "interpolation": 0}]}, "green": {"Points": [{"co": {"X": 1, "Y": 123}, "handle_left": {"X": 0.5, "Y": 1}, "handle_right": {"X": 0.5, "Y": 0}, "handle_type": 0, "interpolation": 0}]}, "red": {"Points": [{"co": {"X": 1, "Y": 0}, "handle_left": {"X": 0.5, "Y": 1}, "handle_right": {"X": 0.5, "Y": 0}, "handle_type": 0, "interpolation": 0}]}}, "waveform": false, "file_id": "18EPNI99JT", "title": "eye.mov", "image": "/home/kl2ag1/.openshot_qt/thumbnail/18EPNI99JT.png"}}, {"type": "update", "key": ["clips", {"id": "4D4FDRWKOW"}], "value": {"id": "4D4FDRWKOW", "layer": 1, "position": 47.67999999999999, "image": "/home/kl2ag1/.openshot_qt/thumbnail/GX3CDKTQ5N.png", "start": 0, "end": 13.261666564941406}, "partial": false, "old_values": {"alpha": {"Points": [{"co": {"X": 1, "Y": 1}, "interpolation": 2}]}, "anchor": 0, "channel_filter": {"Points": [{"co": {"X": 1, "Y": -1}, "interpolation": 2}]}, "channel_mapping": {"Points": [{"co": {"X": 1, "Y": -1}, "interpolation": 2}]}, "crop_height": {"Points": [{"co": {"X": 1, "Y": -1}, "interpolation": 2}]}, "crop_width": {"Points": [{"co": {"X": 1, "Y": -1}, "interpolation": 2}]}, "crop_x": {"Points": [{"co": {"X": 1, "Y": 0}, "interpolation": 2}]}, "crop_y": {"Points": [{"co": {"X": 1, "Y": 0}, "interpolation": 2}]}, "display": 0, "duration": 15.981666564941406, "effects": [], "end": 13.261666564941406, "gravity": 4, "has_audio": {"Points": [{"co": {"X": 1, "Y": -1}, "interpolation": 2}]}, "has_video": {"Points": [{"co": {"X": 1, "Y": -1}, "interpolation": 2}]}, "id": "4D4FDRWKOW", "layer": 1, "location_x": {"Points": [{"co": {"X": 1, "Y": 0}, "interpolation": 2}]}, "location_y": {"Points": [{"co": {"X": 1, "Y": 0}, "interpolation": 2}]}, "perspective_c1_x": {"Points": [{"co": {"X": 1, "Y": -1}, "interpolation": 2}]}, "perspective_c1_y": {"Points": [{"co": {"X": 1, "Y": -1}, "interpolation": 2}]}, "perspective_c2_x": {"Points": [{"co": {"X": 1, "Y": -1}, "interpolation": 2}]}, "perspective_c2_y": {"Points": [{"co": {"X": 1, "Y": -1}, "interpolation": 2}]}, "perspective_c3_x": {"Points": [{"co": {"X": 1, "Y": -1}, "interpolation": 2}]}, "perspective_c3_y": {"Points": [{"co": {"X": 1, "Y": -1}, "interpolation": 2}]}, "perspective_c4_x": {"Points": [{"co": {"X": 1, "Y": -1}, "interpolation": 2}]}, "perspective_c4_y": {"Points": [{"co": {"X": 1, "Y": -1}, "interpolation": 2}]}, "position": 15.52, "reader": {"acodec": "", "audio_bit_rate": 0, "audio_stream_index": -1, "audio_timebase": {"den": 1, "num": 1}, "channel_layout": 4, "channels": 0, "display_ratio": {"den": 3, "num": 4}, "duration": 15.981666564941406, "file_size": "3936862", "fps": {"den": 9589, "num": 230400}, "has_audio": false, "has_single_image": false, "has_video": true, "height": 240, "interlaced_frame": false, "path": "/home/kl2ag1/Wideo/mmedia/b2-2.mov", "pixel_format": 2, "pixel_ratio": {"den": 1, "num": 1}, "sample_rate": 0, "top_field_first": true, "type": "FFmpegReader", "vcodec": "cinepak", "video_bit_rate": 1970689, "video_length": "384", "video_stream_index": 0, "video_timebase": {"den": 600, "num": 1}, "width": 320}, "rotation": {"Points": [{"co": {"X": 1, "Y": 0}, "interpolation": 2}]}, "scale": 1, "scale_x": {"Points": [{"co": {"X": 1, "Y": 1}, "interpolation": 2}]}, "scale_y": {"Points": [{"co": {"X": 1, "Y": 1}, "interpolation": 2}]}, "shear_x": {"Points": [{"co": {"X": 1, "Y": 0}, "interpolation": 2}]}, "shear_y": {"Points": [{"co": {"X": 1, "Y": 0}, "interpolation": 2}]}, "start": 0, "time": {"Points": [{"co": {"X": 1, "Y": 1}, "interpolation": 2}]}, "volume": {"Points": [{"co": {"X": 1, "Y": 1}, "interpolation": 2}]}, "wave_color": {"alpha": {"Points": [{"co": {"X": 1, "Y": 255}, "handle_left": {"X": 0.5, "Y": 1}, "handle_right": {"X": 0.5, "Y": 0}, "handle_type": 0, "interpolation": 0}]}, "blue": {"Points": [{"co": {"X": 1, "Y": 255}, "handle_left": {"X": 0.5, "Y": 1}, "handle_right": {"X": 0.5, "Y": 0}, "handle_type": 0, "interpolation": 0}]}, "green": {"Points": [{"co": {"X": 1, "Y": 123}, "handle_left": {"X": 0.5, "Y": 1}, "handle_right": {"X": 0.5, "Y": 0}, "handle_type": 0, "interpolation": 0}]}, "red": {"Points": [{"co": {"X": 1, "Y": 0}, "handle_left": {"X": 0.5, "Y": 1}, "handle_right": {"X": 0.5, "Y": 0}, "handle_type": 0, "interpolation": 0}]}}, "waveform": false, "file_id": "GX3CDKTQ5N", "title": "b2-2.mov", "image": "/home/kl2ag1/.openshot_qt/thumbnail/GX3CDKTQ5N.png"}}, {"type": "update", "key": ["effects", {"id": "UALMEYFQS8"}], "value": {"id": "UALMEYFQS8", "layer": 1, "position": 41.6775, "start": 0, "end": 3.4241665649414017, "brightness": {"Points": [{"co": {"X": 1, "Y": 1}, "handle_left": {"X": 0.5, "Y": 1}, "handle_right": {"X": 0.5, "Y": 0}, "handle_type": 0, "interpolation": 0}, {"co": {"X": 83, "Y": -1}, "handle_left": {"X": 0.5, "Y": 1}, "handle_right": {"X": 0.5, "Y": 0}, "handle_type": 0, "interpolation": 0}]}, "contrast": {"Points": [{"co": {"X": 1, "Y": 3}, "interpolation": 2}]}}, "partial": false, "old_values": {"id": "UALMEYFQS8", "layer": 1, "title": "Transition", "type": "Mask", "position": 25.3575, "start": 0, "end": 3.4241665649414017, "brightness": {"Points": [{"co": {"X": 1, "Y": 1}, "handle_left": {"X": 0.5, "Y": 1}, "handle_right": {"X": 0.5, "Y": 0}, "handle_type": 0, "interpolation": 0}, {"co": {"X": 83, "Y": -1}, "handle_left": {"X": 0.5, "Y": 1}, "handle_right": {"X": 0.5, "Y": 0}, "handle_type": 0, "interpolation": 0}]}, "contrast": {"Points": [{"co": {"X": 1, "Y": 3}, "interpolation": 2}]}, "reader": {"acodec": "", "audio_bit_rate": 0, "audio_stream_index": -1, "audio_timebase": {"den": 1, "num": 1}, "channel_layout": 4, "channels": 0, "display_ratio": {"den": 4, "num": 5}, "duration": 86400, "file_size": "1658880", "fps": {"den": 1, "num": 30}, "has_audio": false, "has_single_image": true, "has_video": true, "height": 576, "interlaced_frame": false, "path": "/usr/lib/python3/dist-packages/openshot_qt/transitions/common/fade.svg", "pixel_format": -1, "pixel_ratio": {"den": 1, "num": 1}, "sample_rate": 0, "top_field_first": true, "type": "QtImageReader", "vcodec": "", "video_bit_rate": 0, "video_length": "2592000", "video_stream_index": -1, "video_timebase": {"den": 30, "num": 1}, "width": 720}, "replace_image": false}}, {"type": "update", "key": ["clips", {"id": "FMZJL1LFSN"}], "value": {"id": "FMZJL1LFSN", "layer": 1, "position": 20.3975, "image": "/home/kl2ag1/.openshot_qt/thumbnail/NJU2K5CN93.png", "start": 0, "end": 2.0566660308837887}, "partial": false, "old_values": {"alpha": {"Points": [{"co": {"X": 1, "Y": 1}, "interpolation": 2}]}, "anchor": 0, "channel_filter": {"Points": [{"co": {"X": 1, "Y": -1}, "interpolation": 2}]}, "channel_mapping": {"Points": [{"co": {"X": 1, "Y": -1}, "interpolation": 2}]}, "crop_height": {"Points": [{"co": {"X": 1, "Y": -1}, "interpolation": 2}]}, "crop_width": {"Points": [{"co": {"X": 1, "Y": -1}, "interpolation": 2}]}, "crop_x": {"Points": [{"co": {"X": 1, "Y": 0}, "interpolation": 2}]}, "crop_y": {"Points": [{"co": {"X": 1, "Y": 0}, "interpolation": 2}]}, "display": 0, "duration": 17.41666603088379, "effects": [], "end": 2.0566660308837887, "gravity": 4, "has_audio": {"Points": [{"co": {"X": 1, "Y": -1}, "interpolation": 2}]}, "has_video": {"Points": [{"co": {"X": 1, "Y": -1}, "interpolation": 2}]}, "id": "FMZJL1LFSN", "layer": 1, "location_x": {"Points": [{"co": {"X": 1, "Y": 0}, "interpolation": 2}]}, "location_y": {"Points": [{"co": {"X": 1, "Y": 0}, "interpolation": 2}]}, "perspective_c1_x": {"Points": [{"co": {"X": 1, "Y": -1}, "interpolation": 2}]}, "perspective_c1_y": {"Points": [{"co": {"X": 1, "Y": -1}, "interpolation": 2}]}, "perspective_c2_x": {"Points": [{"co": {"X": 1, "Y": -1}, "interpolation": 2}]}, "perspective_c2_y": {"Points": [{"co": {"X": 1, "Y": -1}, "interpolation": 2}]}, "perspective_c3_x": {"Points": [{"co": {"X": 1, "Y": -1}, "interpolation": 2}]}, "perspective_c3_y": {"Points": [{"co": {"X": 1, "Y": -1}, "interpolation": 2}]}, "perspective_c4_x": {"Points": [{"co": {"X": 1, "Y": -1}, "interpolation": 2}]}, "perspective_c4_y": {"Points": [{"co": {"X": 1, "Y": -1}, "interpolation": 2}]}, "position": 25.3575, "reader": {"acodec": "", "audio_bit_rate": 0, "audio_stream_index": -1, "audio_timebase": {"den": 1, "num": 1}, "channel_layout": 4, "channels": 0, "display_ratio": {"den": 3, "num": 4}, "duration": 17.41666603088379, "file_size": "4476679", "fps": {"den": 1, "num": 24}, "has_audio": false, "has_single_image": false, "has_video": true, "height": 240, "interlaced_frame": false, "path": "/home/kl2ag1/Wideo/mmedia/abstrct3.mov", "pixel_format": 2, "pixel_ratio": {"den": 1, "num": 1}, "sample_rate": 0, "top_field_first": true, "type": "FFmpegReader", "vcodec": "cinepak", "video_bit_rate": 2056273, "video_length": "418", "video_stream_index": 0, "video_timebase": {"den": 600, "num": 1}, "width": 320}, "rotation": {"Points": [{"co": {"X": 1, "Y": 0}, "interpolation": 2}]}, "scale": 1, "scale_x": {"Points": [{"co": {"X": 1, "Y": 1}, "interpolation": 2}]}, "scale_y": {"Points": [{"co": {"X": 1, "Y": 1}, "interpolation": 2}]}, "shear_x": {"Points": [{"co": {"X": 1, "Y": 0}, "interpolation": 2}]}, "shear_y": {"Points": [{"co": {"X": 1, "Y": 0}, "interpolation": 2}]}, "start": 0, "time": {"Points": [{"co": {"X": 1, "Y": 1}, "interpolation": 2}]}, "volume": {"Points": [{"co": {"X": 1, "Y": 1}, "interpolation": 2}]}, "wave_color": {"alpha": {"Points": [{"co": {"X": 1, "Y": 255}, "handle_left": {"X": 0.5, "Y": 1}, "handle_right": {"X": 0.5, "Y": 0}, "handle_type": 0, "interpolation": 0}]}, "blue": {"Points": [{"co": {"X": 1, "Y": 255}, "handle_left": {"X": 0.5, "Y": 1}, "handle_right": {"X": 0.5, "Y": 0}, "handle_type": 0, "interpolation": 0}]}, "green": {"Points": [{"co": {"X": 1, "Y": 123}, "handle_left": {"X": 0.5, "Y": 1}, "handle_right": {"X": 0.5, "Y": 0}, "handle_type": 0, "interpolation": 0}]}, "red": {"Points": [{"co": {"X": 1, "Y": 0}, "handle_left": {"X": 0.5, "Y": 1}, "handle_right": {"X": 0.5, "Y": 0}, "handle_type": 0, "interpolation": 0}]}}, "waveform": false, "file_id": "NJU2K5CN93", "title": "abstrct3.mov", "image": "/home/kl2ag1/.openshot_qt/thumbnail/NJU2K5CN93.png"}}, {"type": "update", "key": ["clips", {"id": "FMZJL1LFSN"}], "value": {"id": "FMZJL1LFSN", "layer": 1, "position": 20.3975, "image": "/home/kl2ag1/.openshot_qt/thumbnail/NJU2K5CN93.png", "start": 0, "end": 2.696666030883789}, "partial": false, "old_values": {"alpha": {"Points": [{"co": {"X": 1, "Y": 1}, "interpolation": 2}]}, "anchor": 0, "channel_filter": {"Points": [{"co": {"X": 1, "Y": -1}, "interpolation": 2}]}, "channel_mapping": {"Points": [{"co": {"X": 1, "Y": -1}, "interpolation": 2}]}, "crop_height": {"Points": [{"co": {"X": 1, "Y": -1}, "interpolation": 2}]}, "crop_width": {"Points": [{"co": {"X": 1, "Y": -1}, "interpolation": 2}]}, "crop_x": {"Points": [{"co": {"X": 1, "Y": 0}, "interpolation": 2}]}, "crop_y": {"Points": [{"co": {"X": 1, "Y": 0}, "interpolation": 2}]}, "display": 0, "duration": 17.41666603088379, "effects": [], "end": 2.0566660308837887, "gravity": 4, "has_audio": {"Points": [{"co": {"X": 1, "Y": -1}, "interpolation": 2}]}, "has_video": {"Points": [{"co": {"X": 1, "Y": -1}, "interpolation": 2}]}, "id": "FMZJL1LFSN", "layer": 1, "location_x": {"Points": [{"co": {"X": 1, "Y": 0}, "interpolation": 2}]}, "location_y": {"Points": [{"co": {"X": 1, "Y": 0}, "interpolation": 2}]}, "perspective_c1_x": {"Points": [{"co": {"X": 1, "Y": -1}, "interpolation": 2}]}, "perspective_c1_y": {"Points": [{"co": {"X": 1, "Y": -1}, "interpolation": 2}]}, "perspective_c2_x": {"Points": [{"co": {"X": 1, "Y": -1}, "interpolation": 2}]}, "perspective_c2_y": {"Points": [{"co": {"X": 1, "Y": -1}, "interpolation": 2}]}, "perspective_c3_x": {"Points": [{"co": {"X": 1, "Y": -1}, "interpolation": 2}]}, "perspective_c3_y": {"Points": [{"co": {"X": 1, "Y": -1}, "interpolation": 2}]}, "perspective_c4_x": {"Points": [{"co": {"X": 1, "Y": -1}, "interpolation": 2}]}, "perspective_c4_y": {"Points": [{"co": {"X": 1, "Y": -1}, "interpolation": 2}]}, "position": 20.3975, "reader": {"acodec": "", "audio_bit_rate": 0, "audio_stream_index": -1, "audio_timebase": {"den": 1, "num": 1}, "channel_layout": 4, "channels": 0, "display_ratio": {"den": 3, "num": 4}, "duration": 17.41666603088379, "file_size": "4476679", "fps": {"den": 1, "num": 24}, "has_audio": false, "has_single_image": false, "has_video": true, "height": 240, "interlaced_frame": false, "path": "/home/kl2ag1/Wideo/mmedia/abstrct3.mov", "pixel_format": 2, "pixel_ratio": {"den": 1, "num": 1}, "sample_rate": 0, "top_field_first": true, "type": "FFmpegReader", "vcodec": "cinepak", "video_bit_rate": 2056273, "video_length": "418", "video_stream_index": 0, "video_timebase": {"den": 600, "num": 1}, "width": 320}, "rotation": {"Points": [{"co": {"X": 1, "Y": 0}, "interpolation": 2}]}, "scale": 1, "scale_x": {"Points": [{"co": {"X": 1, "Y": 1}, "interpolation": 2}]}, "scale_y": {"Points": [{"co": {"X": 1, "Y": 1}, "interpolation": 2}]}, "shear_x": {"Points": [{"co": {"X": 1, "Y": 0}, "interpolation": 2}]}, "shear_y": {"Points": [{"co": {"X": 1, "Y": 0}, "interpolation": 2}]}, "start": 0, "time": {"Points": [{"co": {"X": 1, "Y": 1}, "interpolation": 2}]}, "volume": {"Points": [{"co": {"X": 1, "Y": 1}, "interpolation": 2}]}, "wave_color": {"alpha": {"Points": [{"co": {"X": 1, "Y": 255}, "handle_left": {"X": 0.5, "Y": 1}, "handle_right": {"X": 0.5, "Y": 0}, "handle_type": 0, "interpolation": 0}]}, "blue": {"Points": [{"co": {"X": 1, "Y": 255}, "handle_left": {"X": 0.5, "Y": 1}, "handle_right": {"X": 0.5, "Y": 0}, "handle_type": 0, "interpolation": 0}]}, "green": {"Points": [{"co": {"X": 1, "Y": 123}, "handle_left": {"X": 0.5, "Y": 1}, "handle_right": {"X": 0.5, "Y": 0}, "handle_type": 0, "interpolation": 0}]}, "red": {"Points": [{"co": {"X": 1, "Y": 0}, "handle_left": {"X": 0.5, "Y": 1}, "handle_right": {"X": 0.5, "Y": 0}, "handle_type": 0, "interpolation": 0}]}}, "waveform": false, "file_id": "NJU2K5CN93", "title": "abstrct3.mov", "image": "/home/kl2ag1/.openshot_qt/thumbnail/NJU2K5CN93.png"}}, {"type": "update", "key": ["clips", {"id": "FMZJL1LFSN"}], "value": {"id": "FMZJL1LFSN", "layer": 2, "position": 34.6375, "image": "/home/kl2ag1/.openshot_qt/thumbnail/NJU2K5CN93.png", "start": 0, "end": 2.696666030883789}, "partial": false, "old_values": {"alpha": {"Points": [{"co": {"X": 1, "Y": 1}, "interpolation": 2}]}, "anchor": 0, "channel_filter": {"Points": [{"co": {"X": 1, "Y": -1}, "interpolation": 2}]}, "channel_mapping": {"Points": [{"co": {"X": 1, "Y": -1}, "interpolation": 2}]}, "crop_height": {"Points": [{"co": {"X": 1, "Y": -1}, "interpolation": 2}]}, "crop_width": {"Points": [{"co": {"X": 1, "Y": -1}, "interpolation": 2}]}, "crop_x": {"Points": [{"co": {"X": 1, "Y": 0}, "interpolation": 2}]}, "crop_y": {"Points": [{"co": {"X": 1, "Y": 0}, "interpolation": 2}]}, "display": 0, "duration": 17.41666603088379, "effects": [], "end": 2.696666030883789, "gravity": 4, "has_audio": {"Points": [{"co": {"X": 1, "Y": -1}, "interpolation": 2}]}, "has_video": {"Points": [{"co": {"X": 1, "Y": -1}, "interpolation": 2}]}, "id": "FMZJL1LFSN", "layer": 1, "location_x": {"Points": [{"co": {"X": 1, "Y": 0}, "interpolation": 2}]}, "location_y": {"Points": [{"co": {"X": 1, "Y": 0}, "interpolation": 2}]}, "perspective_c1_x": {"Points": [{"co": {"X": 1, "Y": -1}, "interpolation": 2}]}, "perspective_c1_y": {"Points": [{"co": {"X": 1, "Y": -1}, "interpolation": 2}]}, "perspective_c2_x": {"Points": [{"co": {"X": 1, "Y": -1}, "interpolation": 2}]}, "perspective_c2_y": {"Points": [{"co": {"X": 1, "Y": -1}, "interpolation": 2}]}, "perspective_c3_x": {"Points": [{"co": {"X": 1, "Y": -1}, "interpolation": 2}]}, "perspective_c3_y": {"Points": [{"co": {"X": 1, "Y": -1}, "interpolation": 2}]}, "perspective_c4_x": {"Points": [{"co": {"X": 1, "Y": -1}, "interpolation": 2}]}, "perspective_c4_y": {"Points": [{"co": {"X": 1, "Y": -1}, "interpolation": 2}]}, "position": 20.3975, "reader": {"acodec": "", "audio_bit_rate": 0, "audio_stream_index": -1, "audio_timebase": {"den": 1, "num": 1}, "channel_layout": 4, "channels": 0, "display_ratio": {"den": 3, "num": 4}, "duration": 17.41666603088379, "file_size": "4476679", "fps": {"den": 1, "num": 24}, "has_audio": false, "has_single_image": false, "has_video": true, "height": 240, "interlaced_frame": false, "path": "/home/kl2ag1/Wideo/mmedia/abstrct3.mov", "pixel_format": 2, "pixel_ratio": {"den": 1, "num": 1}, "sample_rate": 0, "top_field_first": true, "type": "FFmpegReader", "vcodec": "cinepak", "video_bit_rate": 2056273, "video_length": "418", "video_stream_index": 0, "video_timebase": {"den": 600, "num": 1}, "width": 320}, "rotation": {"Points": [{"co": {"X": 1, "Y": 0}, "interpolation": 2}]}, "scale": 1, "scale_x": {"Points": [{"co": {"X": 1, "Y": 1}, "interpolation": 2}]}, "scale_y": {"Points": [{"co": {"X": 1, "Y": 1}, "interpolation": 2}]}, "shear_x": {"Points": [{"co": {"X": 1, "Y": 0}, "interpolation": 2}]}, "shear_y": {"Points": [{"co": {"X": 1, "Y": 0}, "interpolation": 2}]}, "start": 0, "time": {"Points": [{"co": {"X": 1, "Y": 1}, "interpolation": 2}]}, "volume": {"Points": [{"co": {"X": 1, "Y": 1}, "interpolation": 2}]}, "wave_color": {"alpha": {"Points": [{"co": {"X": 1, "Y": 255}, "handle_left": {"X": 0.5, "Y": 1}, "handle_right": {"X": 0.5, "Y": 0}, "handle_type": 0, "interpolation": 0}]}, "blue": {"Points": [{"co": {"X": 1, "Y": 255}, "handle_left": {"X": 0.5, "Y": 1}, "handle_right": {"X": 0.5, "Y": 0}, "handle_type": 0, "interpolation": 0}]}, "green": {"Points": [{"co": {"X": 1, "Y": 123}, "handle_left": {"X": 0.5, "Y": 1}, "handle_right": {"X": 0.5, "Y": 0}, "handle_type": 0, "interpolation": 0}]}, "red": {"Points": [{"co": {"X": 1, "Y": 0}, "handle_left": {"X": 0.5, "Y": 1}, "handle_right": {"X": 0.5, "Y": 0}, "handle_type": 0, "interpolation": 0}]}}, "waveform": false, "file_id": "NJU2K5CN93", "title": "abstrct3.mov", "image": "/home/kl2ag1/.openshot_qt/thumbnail/NJU2K5CN93.png"}}, {"type": "update", "key": ["clips", {"id": "TJFX01QUS8"}], "value": {"id": "TJFX01QUS8", "layer": 1, "position": 17.125, "image": "/home/kl2ag1/.openshot_qt/thumbnail/28R7BVCSAA.png", "start": 0, "end": 5.605000019073486}, "partial": false, "old_values": {"alpha": {"Points": [{"co": {"X": 1, "Y": 1}, "interpolation": 2}]}, "anchor": 0, "channel_filter": {"Points": [{"co": {"X": 1, "Y": -1}, "interpolation": 2}]}, "channel_mapping": {"Points": [{"co": {"X": 1, "Y": -1}, "interpolation": 2}]}, "crop_height": {"Points": [{"co": {"X": 1, "Y": -1}, "interpolation": 2}]}, "crop_width": {"Points": [{"co": {"X": 1, "Y": -1}, "interpolation": 2}]}, "crop_x": {"Points": [{"co": {"X": 1, "Y": 0}, "interpolation": 2}]}, "crop_y": {"Points": [{"co": {"X": 1, "Y": 0}, "interpolation": 2}]}, "display": 0, "duration": 5.605000019073486, "effects": [], "end": 5.605000019073486, "gravity": 4, "has_audio": {"Points": [{"co": {"X": 1, "Y": -1}, "interpolation": 2}]}, "has_video": {"Points": [{"co": {"X": 1, "Y": -1}, "interpolation": 2}]}, "id": "TJFX01QUS8", "layer": 1, "location_x": {"Points": [{"co": {"X": 1, "Y": 0}, "interpolation": 2}]}, "location_y": {"Points": [{"co": {"X": 1, "Y": 0}, "interpolation": 2}]}, "perspective_c1_x": {"Points": [{"co": {"X": 1, "Y": -1}, "interpolation": 2}]}, "perspective_c1_y": {"Points": [{"co": {"X": 1, "Y": -1}, "interpolation": 2}]}, "perspective_c2_x": {"Points": [{"co": {"X": 1, "Y": -1}, "interpolation": 2}]}, "perspective_c2_y": {"Points": [{"co": {"X": 1, "Y": -1}, "interpolation": 2}]}, "perspective_c3_x": {"Points": [{"co": {"X": 1, "Y": -1}, "interpolation": 2}]}, "perspective_c3_y": {"Points": [{"co": {"X": 1, "Y": -1}, "interpolation": 2}]}, "perspective_c4_x": {"Points": [{"co": {"X": 1, "Y": -1}, "interpolation": 2}]}, "perspective_c4_y": {"Points": [{"co": {"X": 1, "Y": -1}, "interpolation": 2}]}, "position": 25.3575, "reader": {"acodec": "", "audio_bit_rate": 0, "audio_stream_index": -1, "audio_timebase": {"den": 1, "num": 1}, "channel_layout": 4, "channels": 0, "display_ratio": {"den": 3, "num": 4}, "duration": 5.605000019073486, "file_size": "1584165", "fps": {"den": 1121, "num": 27000}, "has_audio": false, "has_single_image": false, "has_video": true, "height": 240, "interlaced_frame": false, "path": "/home/kl2ag1/Wideo/mmedia/clouds.mov", "pixel_format": 2, "pixel_ratio": {"den": 1, "num": 1}, "sample_rate": 0, "top_field_first": true, "type": "FFmpegReader", "vcodec": "cinepak", "video_bit_rate": 2261074, "video_length": "135", "video_stream_index": 0, "video_timebase": {"den": 600, "num": 1}, "width": 320}, "rotation": {"Points": [{"co": {"X": 1, "Y": 0}, "interpolation": 2}]}, "scale": 1, "scale_x": {"Points": [{"co": {"X": 1, "Y": 1}, "interpolation": 2}]}, "scale_y": {"Points": [{"co": {"X": 1, "Y": 1}, "interpolation": 2}]}, "shear_x": {"Points": [{"co": {"X": 1, "Y": 0}, "interpolation": 2}]}, "shear_y": {"Points": [{"co": {"X": 1, "Y": 0}, "interpolation": 2}]}, "start": 0, "time": {"Points": [{"co": {"X": 1, "Y": 1}, "interpolation": 2}]}, "volume": {"Points": [{"co": {"X": 1, "Y": 1}, "interpolation": 2}]}, "wave_color": {"alpha": {"Points": [{"co": {"X": 1, "Y": 255}, "handle_left": {"X": 0.5, "Y": 1}, "handle_right": {"X": 0.5, "Y": 0}, "handle_type": 0, "interpolation": 0}]}, "blue": {"Points": [{"co": {"X": 1, "Y": 255}, "handle_left": {"X": 0.5, "Y": 1}, "handle_right": {"X": 0.5, "Y": 0}, "handle_type": 0, "interpolation": 0}]}, "green": {"Points": [{"co": {"X": 1, "Y": 123}, "handle_left": {"X": 0.5, "Y": 1}, "handle_right": {"X": 0.5, "Y": 0}, "handle_type": 0, "interpolation": 0}]}, "red": {"Points": [{"co": {"X": 1, "Y": 0}, "handle_left": {"X": 0.5, "Y": 1}, "handle_right": {"X": 0.5, "Y": 0}, "handle_type": 0, "interpolation": 0}]}}, "waveform": false, "file_id": "28R7BVCSAA", "title": "clouds.mov", "image": "/home/kl2ag1/.openshot_qt/thumbnail/28R7BVCSAA.png"}}, {"type": "update", "key": ["clips", {"id": "FMZJL1LFSN"}], "value": {"id": "FMZJL1LFSN", "layer": 1, "position": 17.125, "image": "/home/kl2ag1/.openshot_qt/thumbnail/NJU2K5CN93.png", "start": 0, "end": 2.696666030883789}, "partial": false, "old_values": {"alpha": {"Points": [{"co": {"X": 1, "Y": 1}, "interpolation": 2}]}, "anchor": 0, "channel_filter": {"Points": [{"co": {"X": 1, "Y": -1}, "interpolation": 2}]}, "channel_mapping": {"Points": [{"co": {"X": 1, "Y": -1}, "interpolation": 2}]}, "crop_height": {"Points": [{"co": {"X": 1, "Y": -1}, "interpolation": 2}]}, "crop_width": {"Points": [{"co": {"X": 1, "Y": -1}, "interpolation": 2}]}, "crop_x": {"Points": [{"co": {"X": 1, "Y": 0}, "interpolation": 2}]}, "crop_y": {"Points": [{"co": {"X": 1, "Y": 0}, "interpolation": 2}]}, "display": 0, "duration": 17.41666603088379, "effects": [], "end": 2.696666030883789, "gravity": 4, "has_audio": {"Points": [{"co": {"X": 1, "Y": -1}, "interpolation": 2}]}, "has_video": {"Points": [{"co": {"X": 1, "Y": -1}, "interpolation": 2}]}, "id": "FMZJL1LFSN", "layer": 2, "location_x": {"Points": [{"co": {"X": 1, "Y": 0}, "interpolation": 2}]}, "location_y": {"Points": [{"co": {"X": 1, "Y": 0}, "interpolation": 2}]}, "perspective_c1_x": {"Points": [{"co": {"X": 1, "Y": -1}, "interpolation": 2}]}, "perspective_c1_y": {"Points": [{"co": {"X": 1, "Y": -1}, "interpolation": 2}]}, "perspective_c2_x": {"Points": [{"co": {"X": 1, "Y": -1}, "interpolation": 2}]}, "perspective_c2_y": {"Points": [{"co": {"X": 1, "Y": -1}, "interpolation": 2}]}, "perspective_c3_x": {"Points": [{"co": {"X": 1, "Y": -1}, "interpolation": 2}]}, "perspective_c3_y": {"Points": [{"co": {"X": 1, "Y": -1}, "interpolation": 2}]}, "perspective_c4_x": {"Points": [{"co": {"X": 1, "Y": -1}, "interpolation": 2}]}, "perspective_c4_y": {"Points": [{"co": {"X": 1, "Y": -1}, "interpolation": 2}]}, "position": 34.6375, "reader": {"acodec": "", "audio_bit_rate": 0, "audio_stream_index": -1, "audio_timebase": {"den": 1, "num": 1}, "channel_layout": 4, "channels": 0, "display_ratio": {"den": 3, "num": 4}, "duration": 17.41666603088379, "file_size": "4476679", "fps": {"den": 1, "num": 24}, "has_audio": false, "has_single_image": false, "has_video": true, "height": 240, "interlaced_frame": false, "path": "/home/kl2ag1/Wideo/mmedia/abstrct3.mov", "pixel_format": 2, "pixel_ratio": {"den": 1, "num": 1}, "sample_rate": 0, "top_field_first": true, "type": "FFmpegReader", "vcodec": "cinepak", "video_bit_rate": 2056273, "video_length": "418", "video_stream_index": 0, "video_timebase": {"den": 600, "num": 1}, "width": 320}, "rotation": {"Points": [{"co": {"X": 1, "Y": 0}, "interpolation": 2}]}, "scale": 1, "scale_x": {"Points": [{"co": {"X": 1, "Y": 1}, "interpolation": 2}]}, "scale_y": {"Points": [{"co": {"X": 1, "Y": 1}, "interpolation": 2}]}, "shear_x": {"Points": [{"co": {"X": 1, "Y": 0}, "interpolation": 2}]}, "shear_y": {"Points": [{"co": {"X": 1, "Y": 0}, "interpolation": 2}]}, "start": 0, "time": {"Points": [{"co": {"X": 1, "Y": 1}, "interpolation": 2}]}, "volume": {"Points": [{"co": {"X": 1, "Y": 1}, "interpolation": 2}]}, "wave_color": {"alpha": {"Points": [{"co": {"X": 1, "Y": 255}, "handle_left": {"X": 0.5, "Y": 1}, "handle_right": {"X": 0.5, "Y": 0}, "handle_type": 0, "interpolation": 0}]}, "blue": {"Points": [{"co": {"X": 1, "Y": 255}, "handle_left": {"X": 0.5, "Y": 1}, "handle_right": {"X": 0.5, "Y": 0}, "handle_type": 0, "interpolation": 0}]}, "green": {"Points": [{"co": {"X": 1, "Y": 123}, "handle_left": {"X": 0.5, "Y": 1}, "handle_right": {"X": 0.5, "Y": 0}, "handle_type": 0, "interpolation": 0}]}, "red": {"Points": [{"co": {"X": 1, "Y": 0}, "handle_left": {"X": 0.5, "Y": 1}, "handle_right": {"X": 0.5, "Y": 0}, "handle_type": 0, "interpolation": 0}]}}, "waveform": false, "file_id": "NJU2K5CN93", "title": "abstrct3.mov", "image": "/home/kl2ag1/.openshot_qt/thumbnail/NJU2K5CN93.png"}}], "redo": []}, "version": {"openshot-qt": "2.4.1", "libopenshot": "0.1.9"}}